<svg preserveAspectRatio="none" width="100%" height="100%" overflow="visible" style="display: block;" viewBox="0 0 40 40" fill="none" xmlns="http://www.w3.org/2000/svg">
<g id="Frame 371 Emblem">
<path id="Vector" fill-rule="evenodd" clip-rule="evenodd" d="M40 20C40 25.3043 37.8929 30.3914 34.1421 34.1421C30.3914 37.8929 25.3043 40 20 40C14.6957 40 9.60859 37.8929 5.85786 34.1421C2.10714 30.3914 0 25.3043 0 20C0 14.6957 2.10714 9.60859 5.85786 5.85786C9.60859 2.10714 14.6957 3.0534e-08 20 3.0534e-08C22.6264 3.0534e-08 25.2272 0.517316 27.6537 1.52241C30.0802 2.5275 32.285 4.00069 34.1421 5.85786C35.9993 7.71504 37.4725 9.91982 38.4776 12.3463C39.4827 14.7728 40 17.3736 40 20Z" fill="white"/>
<path id="Vector_2" d="M29.4021 18.6063C26.2204 16.4457 22.1477 17.3286 20.0101 20.5784C19.4142 21.5054 18.5972 22.2698 17.6326 22.8027C16.6681 23.3356 15.5861 23.6204 14.4842 23.6315C11.0829 23.6315 8.75382 21.2387 8.0646 18.7629H8.0609C8.05609 18.737 8.04979 18.7163 8.04498 18.6937C8.03622 18.6655 8.02868 18.637 8.02238 18.6081C7.75092 17.576 7.685 17.0827 7.685 15.9846C7.685 10.0628 13.7594 3.47101 22.5118 3.47101C31.4727 3.47101 36.5994 10.2913 37.9167 14.0821C37.8959 14.0147 37.8756 13.9492 37.8522 13.8803C35.3109 6.46636 28.2773 1.13228 20.0001 1.13228C9.57895 1.13228 1.13137 9.5806 1.13137 20.004C1.13137 29.317 7.8498 37.2902 17.1692 37.2902C24.6009 37.2902 29.5969 33.1231 31.8874 27.379C33.1463 24.2392 32.2537 20.548 29.4021 18.6063Z" fill="#003863"/>
<path id="Vector_3" d="M38.0361 14.4482C36.9347 10.7503 31.771 3.46967 22.512 3.46967C13.7596 3.46967 7.68519 10.0614 7.68519 15.9836C7.68519 17.0813 7.75111 17.5746 8.02257 18.6068C7.90917 18.1674 7.85082 17.7155 7.84888 17.2617C7.84888 11.0951 14.0236 6.81981 20.3725 6.81981C28.9641 6.81981 35.9288 13.7871 35.9288 22.3777C35.9288 29.1146 32.0528 34.9438 26.4221 37.7444L26.4232 37.7488C33.6831 35.1194 38.8675 28.1662 38.8675 20.003C38.8675 18.0679 38.6068 16.3651 38.0361 14.4482Z" fill="#E4032E"/>
</g>
</svg>
