<svg preserveAspectRatio="none" width="100%" height="100%" overflow="visible" style="display: block;" viewBox="0 0 32 32" fill="none" xmlns="http://www.w3.org/2000/svg">
<g id="ri:instagram-fill">
<path id="Vector" d="M17.3707 2.66667C18.8707 2.67067 19.632 2.67867 20.2893 2.69733L20.548 2.70667C20.8467 2.71733 21.1413 2.73067 21.4973 2.74667C22.916 2.81333 23.884 3.03733 24.7333 3.36667C25.6133 3.70533 26.3547 4.164 27.096 4.904C27.7743 5.57031 28.2989 6.37663 28.6333 7.26667C28.9627 8.116 29.1867 9.084 29.2533 10.504C29.2693 10.8587 29.2827 11.1533 29.2933 11.4533L29.3013 11.712C29.3213 12.368 29.3293 13.1293 29.332 14.6293L29.3333 15.624V17.3707C29.3366 18.3432 29.3264 19.3157 29.3027 20.288L29.2947 20.5467C29.284 20.8467 29.2707 21.1413 29.2547 21.496C29.188 22.916 28.9613 23.8827 28.6333 24.7333C28.2989 25.6234 27.7743 26.4297 27.096 27.096C26.4297 27.7743 25.6234 28.2989 24.7333 28.6333C23.884 28.9627 22.916 29.1867 21.4973 29.2533L20.548 29.2933L20.2893 29.3013C19.632 29.32 18.8707 29.3293 17.3707 29.332L16.376 29.3333H14.6307C13.6577 29.3368 12.6847 29.3265 11.712 29.3027L11.4533 29.2947C11.1368 29.2827 10.8204 29.2689 10.504 29.2533C9.08533 29.1867 8.11733 28.9627 7.26667 28.6333C6.37711 28.2987 5.57126 27.7741 4.90533 27.096C4.22659 26.4298 3.70148 25.6235 3.36667 24.7333C3.03733 23.884 2.81333 22.916 2.74667 21.496L2.70667 20.5467L2.7 20.288C2.67542 19.3158 2.66431 18.3432 2.66667 17.3707V14.6293C2.66298 13.6568 2.67276 12.6843 2.696 11.712L2.70533 11.4533C2.716 11.1533 2.72933 10.8587 2.74533 10.504C2.812 9.084 3.036 8.11733 3.36533 7.26667C3.70093 6.37626 4.22696 5.56992 4.90667 4.904C5.5722 4.22607 6.37758 3.70143 7.26667 3.36667C8.11733 3.03733 9.084 2.81333 10.504 2.74667C10.8587 2.73067 11.1547 2.71733 11.4533 2.70667L11.712 2.69867C12.6843 2.67498 13.6568 2.66475 14.6293 2.668L17.3707 2.66667ZM16 9.33333C14.2319 9.33333 12.5362 10.0357 11.286 11.286C10.0357 12.5362 9.33333 14.2319 9.33333 16C9.33333 17.7681 10.0357 19.4638 11.286 20.714C12.5362 21.9643 14.2319 22.6667 16 22.6667C17.7681 22.6667 19.4638 21.9643 20.714 20.714C21.9643 19.4638 22.6667 17.7681 22.6667 16C22.6667 14.2319 21.9643 12.5362 20.714 11.286C19.4638 10.0357 17.7681 9.33333 16 9.33333ZM16 12C16.5253 11.9999 17.0454 12.1033 17.5308 12.3042C18.0161 12.5052 18.4571 12.7997 18.8286 13.1711C19.2001 13.5425 19.4948 13.9834 19.6959 14.4687C19.897 14.9539 20.0006 15.474 20.0007 15.9993C20.0008 16.5246 19.8974 17.0448 19.6964 17.5301C19.4955 18.0155 19.2009 18.4565 18.8296 18.828C18.4582 19.1995 18.0173 19.4942 17.532 19.6953C17.0467 19.8964 16.5266 19.9999 16.0013 20C14.9405 20 13.9231 19.5786 13.1729 18.8284C12.4228 18.0783 12.0013 17.0609 12.0013 16C12.0013 14.9391 12.4228 13.9217 13.1729 13.1716C13.9231 12.4214 14.9405 12 16.0013 12M23.0013 7.33333C22.5593 7.33333 22.1354 7.50893 21.8228 7.82149C21.5103 8.13405 21.3347 8.55797 21.3347 9C21.3347 9.44203 21.5103 9.86595 21.8228 10.1785C22.1354 10.4911 22.5593 10.6667 23.0013 10.6667C23.4434 10.6667 23.8673 10.4911 24.1798 10.1785C24.4924 9.86595 24.668 9.44203 24.668 9C24.668 8.55797 24.4924 8.13405 24.1798 7.82149C23.8673 7.50893 23.4434 7.33333 23.0013 7.33333Z" fill="#5A5B5D"/>
</g>
</svg>
