<svg preserveAspectRatio="none" width="100%" height="100%" overflow="visible" style="display: block;" viewBox="0 0 32 32" fill="none" xmlns="http://www.w3.org/2000/svg">
<g id="clarity:store-solid" clip-path="url(#clip0_0_411)">
<g id="Vector">
</g>
<g id="Group 32">
<path id="Vector_2" d="M29.1583 10.3279L25.7583 3.58404C25.6203 3.30865 25.4076 3.0769 25.1441 2.91484C24.8806 2.75277 24.5767 2.66683 24.2667 2.66667H7.73334C7.42327 2.66683 7.1194 2.75277 6.85588 2.91484C6.59236 3.0769 6.37966 3.30865 6.24168 3.58404L2.84168 10.3279C2.72559 10.5589 2.66566 10.8137 2.66668 11.0717V13.6172C2.66592 14.0034 2.80154 14.3777 3.05001 14.6751C3.41723 15.0926 3.87076 15.4268 4.37979 15.6549C4.88882 15.8831 5.44141 15.9999 6.00001 15.9974C6.91148 15.9988 7.79516 15.6863 8.50001 15.1131C9.20485 15.6866 10.0883 16 11 16C11.9117 16 12.7952 15.6866 13.5 15.1131C14.2048 15.6866 15.0883 16 16 16C16.9117 16 17.7952 15.6866 18.5 15.1131C19.2048 15.6866 20.0883 16 21 16C21.9117 16 22.7952 15.6866 23.5 15.1131C24.2868 15.7538 25.2934 16.067 26.3082 15.9869C27.3231 15.9067 28.267 15.4395 28.9417 14.6834C29.1931 14.3871 29.3317 14.0127 29.3333 13.6255V11.0717C29.3343 10.8137 29.2744 10.5589 29.1583 10.3279ZM13.5 11.2618V12.518L12.8167 13.4106C12.6069 13.6942 12.3327 13.9248 12.0164 14.0837C11.7001 14.2426 11.3504 14.3254 10.9958 14.3254C10.6412 14.3254 10.2916 14.2426 9.97526 14.0837C9.65893 13.9248 9.38478 13.6942 9.17501 13.4106L8.50001 12.485V11.2618L10.6583 4.31958H14.3333L13.5 11.2618ZM23.5 12.485L22.825 13.4106C22.6152 13.6942 22.3411 13.9248 22.0247 14.0837C21.7084 14.2426 21.3588 14.3254 21.0042 14.3254C20.6495 14.3254 20.2999 14.2426 19.9836 14.0837C19.6673 13.9248 19.3931 13.6942 19.1833 13.4106L18.5 12.485V11.2618L17.6667 4.31958H21.375L23.5 11.2618V12.485Z" fill="#5A5B5D"/>
<path id="Subtract" d="M26.6663 27.8988C26.6663 28.2522 26.5418 28.5911 26.3197 28.8411C26.0975 29.0911 25.796 29.2317 25.4818 29.2318H24.4447C24.1303 29.2318 23.829 29.0912 23.6068 28.8411C23.3845 28.5911 23.2591 28.2524 23.2591 27.8988V19.8988H17.1849V27.8988C17.1849 28.2522 17.0603 28.5911 16.8382 28.8411C16.616 29.0911 16.3145 29.2317 16.0003 29.2318H6.51888C6.20455 29.2318 5.90228 29.0912 5.68001 28.8411C5.458 28.5912 5.33335 28.2522 5.33333 27.8988V14.6663L26.6663 14.6654V27.8988ZM8.889 19.8988V23.8988H13.6292V19.8988H8.889Z" fill="#5A5B5D"/>
</g>
</g>
<defs>
<clipPath id="clip0_0_411">
<rect width="32" height="32" fill="white"/>
</clipPath>
</defs>
</svg>
