<svg preserveAspectRatio="none" width="100%" height="100%" overflow="visible" style="display: block;" viewBox="0 0 116.636 16.715" fill="none" xmlns="http://www.w3.org/2000/svg">
<g id="Group">
<path id="Vector" d="M13.9276 10.9714V16.715H11.8786V12.7622H1.03661V10.9714H6.55844V8.55127H0V6.7604H15.1457V8.55127H8.58728V10.9714H13.9236H13.9276ZM13.9276 0.536748V5.44952H11.8786V2.34778H1.22214V0.536748H13.9276Z" fill="#575756"/>
<path id="Vector_2" d="M17.8602 9.14477V0.686564H26.3386V9.14477H17.8602ZM18.3402 16.3486V10.8429H20.3731V14.5375H31.8443V16.3486H18.3443H18.3402ZM24.3259 2.45726H19.8931V7.39021H24.3259V2.45726ZM29.6461 10.7501V0.202546H31.6951V10.7501H29.6461Z" fill="#575756"/>
<path id="Vector_3" d="M40.8393 9.43807V11.7452H38.8064V9.43807H34.3171V7.73998H45.3084V9.43807H40.8393ZM41.4281 6.88891V2.45612H35.3336V0.645089H43.4772V6.88891H41.4281ZM37.4027 10.878V14.5727H49.1684V16.3474H35.3537V10.8821H37.4027V10.878ZM46.6918 6.30002H44.2919V4.61806H46.6918V0.20544H48.7247V11.9348H46.6918V6.30002Z" fill="#575756"/>
<path id="Vector_4" d="M60.1632 4.60193C60.1632 5.17065 60.0462 5.69904 59.8123 6.19919C59.5783 6.69934 59.2637 7.12689 58.8725 7.48183C58.4772 7.86501 58.0214 8.16349 57.4971 8.38533C56.9727 8.60717 56.4121 8.71608 55.807 8.71608C55.202 8.71608 54.6414 8.60717 54.117 8.38533C53.5927 8.16349 53.1369 7.86098 52.7416 7.48183C52.3463 7.12689 52.0357 6.69531 51.8099 6.19919C51.58 5.69904 51.467 5.16662 51.467 4.60193C51.467 4.03724 51.58 3.48466 51.8099 2.98451C52.0357 2.48435 52.3463 2.05277 52.7416 1.68169C53.1369 1.29851 53.5927 1.00003 54.117 0.778193C54.6414 0.556352 55.202 0.447448 55.807 0.447448C56.4121 0.447448 56.9727 0.556352 57.4971 0.778193C58.0214 1.00003 58.4772 1.30255 58.8725 1.68169C59.2678 2.04874 59.5783 2.48435 59.8123 2.98451C60.0462 3.48466 60.1632 4.02111 60.1632 4.60193ZM52.556 10.0471H65.7254V16.5289H63.6763V11.8743H52.556V10.0471ZM58.1707 4.60193C58.1707 3.94851 57.9407 3.39189 57.4769 2.93207C57.0171 2.47225 56.4645 2.23831 55.8232 2.23831C55.1818 2.23831 54.6293 2.46822 54.1614 2.93207C53.6935 3.39189 53.4596 3.95254 53.4596 4.60193C53.4596 5.25132 53.6935 5.79181 54.1614 6.25566C54.6293 6.71547 55.1818 6.94942 55.8232 6.94942C56.4645 6.94942 57.013 6.71951 57.4769 6.25566C57.9407 5.79584 58.1707 5.24325 58.1707 4.60193ZM63.6723 0.20544H65.7213V8.97825H63.6723V0.20544Z" fill="#575756"/>
<path id="Vector_5" d="M68.0845 11.6928V9.88175H79.112V11.6928H74.4937V16.1457H72.481V11.6928H68.0845ZM77.8536 4.67453C77.8536 5.24325 77.7406 5.77567 77.5107 6.27986C77.2849 6.78404 76.9662 7.21966 76.5588 7.59074C76.1515 7.97392 75.6836 8.27239 75.1552 8.49424C74.6268 8.71608 74.0581 8.82498 73.4571 8.82498C72.8561 8.82498 72.2874 8.71608 71.759 8.49424C71.2306 8.27239 70.7627 7.96988 70.3553 7.59074C69.948 7.21966 69.6293 6.78404 69.3954 6.27986C69.1614 5.77567 69.0445 5.23922 69.0445 4.67453C69.0445 4.10985 69.1614 3.57339 69.3954 3.06921C69.6293 2.56502 69.948 2.12134 70.3553 1.73816C70.7627 1.35498 71.2306 1.0565 71.759 0.834663C72.2874 0.612822 72.8561 0.503916 73.4571 0.503916C74.0581 0.503916 74.6268 0.612822 75.1552 0.834663C75.6836 1.0565 76.1515 1.35901 76.5588 1.73816C76.9662 2.12134 77.2808 2.56502 77.5107 3.06921C77.7366 3.57339 77.8536 4.10985 77.8536 4.67453ZM75.8974 4.67453C75.8974 4.00901 75.6594 3.44432 75.1754 2.97644C74.6954 2.50856 74.1226 2.27461 73.4571 2.27461C72.7916 2.27461 72.2228 2.50856 71.7469 2.97644C71.275 3.44432 71.037 4.00901 71.037 4.67453C71.037 5.34006 71.275 5.89264 71.7469 6.36456C72.2228 6.83648 72.7916 7.07445 73.4571 7.07445C74.1226 7.07445 74.6954 6.83648 75.1754 6.36456C75.6553 5.89264 75.8974 5.32796 75.8974 4.67453ZM80.3463 0.20544H82.3791V16.6822H80.3463V0.20544Z" fill="#575756"/>
<path id="Vector_6" d="M91.7768 9.69648V11.9109H89.7439V9.69648H85.2546V7.99839H96.2459V9.69648H91.7768ZM88.3402 11.1405V14.577H100.106V16.3517H86.2912V11.1445H88.3402V11.1405ZM94.5639 3.69467C94.5639 4.19885 94.455 4.6748 94.2412 5.12655C94.0234 5.57427 93.737 5.97358 93.3821 6.31643C93.0271 6.64717 92.6077 6.91338 92.1277 7.11102C91.6477 7.30866 91.1354 7.40547 90.595 7.40547C90.0545 7.40547 89.5422 7.30866 89.0622 7.11102C88.5822 6.91338 88.1587 6.64717 87.7877 6.31643C87.4448 5.97358 87.1625 5.57427 86.9487 5.12655C86.7309 4.6748 86.626 4.19885 86.626 3.69467C86.626 3.19048 86.7349 2.71453 86.9487 2.27085C87.1625 1.82717 87.4448 1.43592 87.7877 1.08904C88.1587 0.746194 88.5822 0.475952 89.0622 0.286378C89.5422 0.0968046 90.0545 0 90.595 0C91.1354 0 91.6477 0.0968046 92.1277 0.286378C92.6077 0.475952 93.0271 0.746194 93.3821 1.08904C93.737 1.43592 94.0234 1.82717 94.2412 2.27085C94.455 2.71453 94.5639 3.19048 94.5639 3.69467ZM92.6278 3.71483C92.6278 3.16225 92.4302 2.69033 92.0349 2.30312C91.6396 1.9159 91.1596 1.7223 90.595 1.7223C90.0303 1.7223 89.5463 1.9159 89.155 2.30312C88.7597 2.69033 88.5661 3.16225 88.5661 3.71483C88.5661 4.26742 88.7638 4.73934 89.155 5.12655C89.5503 5.51377 90.0303 5.70737 90.595 5.70737C91.1596 5.70737 91.6396 5.51377 92.0349 5.12655C92.4302 4.73934 92.6278 4.26742 92.6278 3.71483ZM97.6334 6.55844H95.2859V4.87647H97.6334V0.201674H99.6662V12.0964H97.6334V6.5544V6.55844Z" fill="#575756"/>
<path id="Vector_7" d="M113.147 15.0366H102.341V13.2458H106.681V11.1968C106.483 11.1484 106.298 11.0838 106.128 11.0112C105.636 10.8136 105.205 10.5474 104.834 10.2166C104.462 9.87378 104.176 9.47446 103.966 9.02675C103.757 8.575 103.652 8.09905 103.652 7.59486C103.652 7.09068 103.757 6.61473 103.966 6.17104C104.176 5.72736 104.466 5.33611 104.834 4.98923C105.205 4.64639 105.632 4.37615 106.116 4.18657C106.604 3.997 107.125 3.9002 107.677 3.9002C108.23 3.9002 108.75 3.997 109.23 4.18657C109.71 4.37615 110.13 4.64639 110.484 4.98923C110.856 5.33611 111.146 5.72736 111.36 6.17104C111.578 6.61473 111.682 7.09068 111.682 7.59486C111.682 8.09905 111.573 8.575 111.36 9.02675C111.146 9.47446 110.851 9.87378 110.484 10.2166C110.13 10.5474 109.71 10.8136 109.23 11.0112C109.032 11.0959 108.831 11.1645 108.621 11.2129V13.2458H113.147V15.0366ZM106.532 1.84715V0.0925926H108.75V1.84715H112.759V3.60172H102.526V1.84715H106.536H106.532ZM109.69 7.57469C109.69 7.03421 109.492 6.56632 109.097 6.17911C108.702 5.7919 108.222 5.59829 107.657 5.59829C107.092 5.59829 106.608 5.7919 106.217 6.17911C105.822 6.56632 105.628 7.03421 105.628 7.57469C105.628 8.11518 105.826 8.58306 106.217 8.97834C106.612 9.37362 107.092 9.56723 107.657 9.56723C108.222 9.56723 108.702 9.36959 109.097 8.97834C109.492 8.58306 109.69 8.11518 109.69 7.57469ZM114.603 0.205529H116.636V16.6823H114.603V0.205529Z" fill="#575756"/>
</g>
</svg>
