<svg preserveAspectRatio="none" width="100%" height="100%" overflow="visible" style="display: block;" viewBox="0 0 32 32" fill="none" xmlns="http://www.w3.org/2000/svg">
<g id="iconoir:donate">
<path id="Vector" d="M24 6.78062C23.9998 8.041 23.5239 9.25019 22.6761 10.1446C20.7242 12.2057 18.8304 14.3549 16.8045 16.3406C16.5784 16.5564 16.2817 16.673 15.9758 16.6664C15.6699 16.6598 15.3781 16.5304 15.1607 16.305L9.32512 10.1467C8.47636 9.25198 8 8.04191 8 6.78062C8 5.51933 8.47636 4.30926 9.32512 3.41453C9.74839 2.96791 10.2519 2.61344 10.8065 2.37155C11.3612 2.12966 11.9561 2.00513 12.5569 2.00513C13.1577 2.00513 13.7526 2.12966 14.3072 2.37155C14.8619 2.61344 15.3653 2.96791 15.7886 3.41453L16.0006 3.63865L16.2126 3.41453C16.8479 2.74186 17.66 2.28244 18.5455 2.09474C19.4309 1.90704 20.3496 1.99956 21.1847 2.36052C22.0198 2.72148 22.7334 3.33455 23.2348 4.12169C23.7361 4.90882 24.0025 5.83441 24 6.78062Z" fill="#5A5B5D"/>
<path id="Vector_2" fill-rule="evenodd" clip-rule="evenodd" d="M2.66857 13.4091V22.2309C2.66879 23.221 3.07026 24.1704 3.78468 24.8704L7.95772 28.9603V30H14.3058V24.6352C14.3059 24.091 14.1967 23.552 13.9843 23.0492C13.7718 22.5463 13.4604 22.0894 13.0678 21.7045L10.329 19.0203L10.3214 19.0128C10.0197 18.7669 9.63295 18.6445 9.24155 18.6711C8.85016 18.6977 8.48431 18.8713 8.2202 19.1556C7.95609 19.4399 7.81408 19.8132 7.82372 20.1976C7.83337 20.582 7.99393 20.9479 8.27198 21.2192L10.0242 22.9365C10.1152 23.0226 10.1877 23.1256 10.2377 23.2395C10.2876 23.3534 10.3138 23.4758 10.3149 23.5998C10.316 23.7237 10.2919 23.8466 10.2441 23.9613C10.1962 24.076 10.1255 24.1802 10.036 24.2678C9.94662 24.3555 9.8403 24.4248 9.72326 24.4717C9.60623 24.5186 9.48083 24.5422 9.35438 24.5412C9.22793 24.5401 9.10297 24.5143 8.98678 24.4654C8.8706 24.4165 8.76551 24.3454 8.67767 24.2563L6.92541 22.5389C6.28794 21.9135 5.92767 21.067 5.92267 20.183C5.91768 19.2989 6.26838 18.4486 6.89875 17.8163V13.4072C6.89875 12.8572 6.67581 12.3297 6.27897 11.9408C5.88214 11.5518 5.34391 11.3333 4.78271 11.3333C4.2215 11.3333 3.68327 11.5518 3.28644 11.9408C2.88961 12.3297 2.66667 12.8572 2.66667 13.4072L2.66857 13.4091ZM29.3333 22.2309V13.4091C29.3333 12.859 29.1104 12.3315 28.7136 11.9426C28.3167 11.5537 27.7785 11.3352 27.2173 11.3352C26.6561 11.3352 26.1179 11.5537 25.721 11.9426C25.3242 12.3315 25.1013 12.859 25.1013 13.4091V17.8163C25.7328 18.4488 26.0842 19.2999 26.0792 20.1848C26.0742 21.0698 25.7132 21.9171 25.0746 22.5427L23.3223 24.2581C23.1427 24.4281 22.9022 24.5222 22.6525 24.5201C22.4028 24.518 22.1639 24.4198 21.9874 24.2468C21.8108 24.0737 21.7106 23.8396 21.7085 23.5949C21.7063 23.3502 21.8023 23.1144 21.9758 22.9384L23.728 21.2211C24.0109 20.9507 24.1756 20.5831 24.1872 20.196C24.1989 19.8089 24.0566 19.4325 23.7904 19.1462C23.5243 18.8599 23.1551 18.6862 22.7607 18.6617C22.3664 18.6371 21.9777 18.7637 21.6767 19.0147L21.6691 19.0221L18.9341 21.7027C18.5412 22.0878 18.2297 22.545 18.0173 23.0482C17.8049 23.5514 17.6957 24.0906 17.6961 24.6352V30H24.0423V28.9621L28.2153 24.8704C28.5694 24.524 28.8504 24.1125 29.0422 23.6597C29.2341 23.2068 29.333 22.7213 29.3333 22.2309Z" fill="#5A5B5D"/>
</g>
</svg>
