<svg preserveAspectRatio="none" width="100%" height="100%" overflow="visible" style="display: block;" viewBox="0 0 200 84.0336" fill="none" xmlns="http://www.w3.org/2000/svg">
<g id="Group 32">
<path id="Path 1" d="M73.6103 16.1734V43.2279H78.0675V16.1734H73.6103Z" fill="#231F20"/>
<path id="Path 2" d="M69.3284 24.0539C69.328 25.6983 68.8399 27.3055 67.9258 28.6725C67.0118 30.0395 65.7128 31.1049 64.1932 31.7338C62.6737 32.3628 61.0017 32.5271 59.3887 32.2061C57.7757 31.885 56.2941 31.0929 55.1313 29.9301C53.9685 28.7672 53.1767 27.2857 52.856 25.673C52.5353 24.0602 52.7001 22.3886 53.3296 20.8695C53.9591 19.3504 55.025 18.052 56.3925 17.1385C57.76 16.225 59.3678 15.7375 61.0124 15.7375C62.1047 15.7375 63.1862 15.9526 64.1953 16.3705C65.2044 16.7885 66.1213 17.4011 66.8935 18.1734C67.6657 18.9457 68.2782 19.8625 68.696 20.8715C69.1138 21.8805 69.3287 22.9619 69.3284 24.0539ZM61.0124 20.1938C60.2503 20.1942 59.5053 20.4205 58.8718 20.8441C58.2383 21.2678 57.7446 21.8696 57.4532 22.5737C57.1617 23.2778 57.0856 24.0524 57.2344 24.7997C57.3832 25.547 57.7502 26.2335 58.2891 26.7723C58.828 27.3111 59.5146 27.6781 60.2621 27.8268C61.0095 27.9756 61.7844 27.8995 62.4886 27.6081C63.1928 27.3167 63.7948 26.8231 64.2185 26.1897C64.6422 25.5563 64.8686 24.8116 64.869 24.0496C64.8693 23.5431 64.7697 23.0416 64.576 22.5737C64.3823 22.1057 64.0982 21.6805 63.7401 21.3224C63.3819 20.9643 62.9566 20.6803 62.4886 20.4866C62.0206 20.293 61.5189 20.1935 61.0124 20.1938Z" fill="#231F20"/>
<g id="Group 1">
<path id="Path 3" d="M41.9104 10.9722C40.7494 10.2862 39.8704 9.20941 39.431 7.93463C38.9871 9.25322 38.1192 10.3878 36.9626 11.1613L36.3708 10.6488C37.2012 10.1619 37.8869 9.46276 38.3574 8.62313C38.828 7.7835 39.0664 6.83368 39.0482 5.8714V4.29652H39.8028V5.8714C39.7826 6.79536 40.0159 7.70721 40.4775 8.50794C40.939 9.30868 41.6111 9.9677 42.4208 10.4135L41.9104 10.9722ZM43.9938 8.08197V12.7715H43.2568V3.76643H43.9938V7.42434H45.3996V8.08418L43.9938 8.08197Z" fill="#231F20"/>
<path id="Path 4" d="M46.9469 8.57458V4.43283H51.292V5.06414H47.6752V7.92354C49.2457 7.98143 50.8182 7.89233 52.3721 7.65739L52.3832 8.27769C50.5826 8.52833 48.7641 8.62761 46.9469 8.57458ZM47.9194 12.5646V9.63697H48.6476V11.9487H54.0552V12.5668L47.9194 12.5646ZM53.7604 6.96231V10.3057H53.0343V3.77514H53.7604V6.33764H55.0804V6.96674L53.7604 6.96231Z" fill="#231F20"/>
<path id="Path 5" d="M63.2376 8.59217V6.46961H61.0376V8.26004H56.8576V4.19749H57.5946V5.61403H60.3094V4.19749H61.0376V5.82957H63.2376V3.77514H63.9658V8.59217H63.2376ZM60.3072 6.22548H57.5924V7.65739H60.3072V6.22548ZM57.918 12.6636V9.18388H58.6462V10.2661H63.209V9.18388H63.9482V12.6636H57.918ZM63.198 10.8754H58.6462V12.0565H63.209L63.198 10.8754Z" fill="#231F20"/>
<path id="Path 6" d="M66.4759 6.37067C66.508 5.76373 66.7717 5.19219 67.2127 4.7739C67.6538 4.35561 68.2386 4.12245 68.8465 4.12245C69.4544 4.12245 70.0391 4.35561 70.4802 4.7739C70.9212 5.19219 71.1849 5.76373 71.2169 6.37067C71.1849 6.97761 70.9212 7.54908 70.4802 7.96737C70.0391 8.38566 69.4544 8.61889 68.8465 8.61889C68.2386 8.61889 67.6538 8.38566 67.2127 7.96737C66.7717 7.54908 66.508 6.97761 66.4759 6.37067ZM67.2547 6.37067C67.2547 6.79302 67.4226 7.19804 67.7213 7.49669C68.02 7.79534 68.4251 7.96314 68.8475 7.96314C69.27 7.96314 69.6751 7.79534 69.9738 7.49669C70.2725 7.19804 70.4403 6.79302 70.4403 6.37067C70.4403 5.94832 70.2725 5.54322 69.9738 5.24458C69.6751 4.94593 69.27 4.77819 68.8475 4.77819C68.4251 4.77819 68.02 4.94593 67.7213 5.24458C67.4226 5.54322 67.2547 5.94832 67.2547 6.37067ZM67.8928 12.5646V9.76458H68.632V11.9465H74.1694V12.5646H67.8928ZM73.2167 10.3057V3.77514H73.9428V10.2969L73.2167 10.3057Z" fill="#231F20"/>
</g>
<path id="Path 7" d="M95.06 36.1635V20.1947H82.806V15.7428H99.526V36.1679L95.06 36.1635Z" fill="#231F20"/>
<path id="Path 8" d="M103.81 36.3011V15.7375H108.265V36.3011H103.81Z" fill="#231F20"/>
<path id="Path 9" d="M126.444 43.356V31.1111H114.471V26.6526H130.903V43.3582L126.444 43.356Z" fill="#231F20"/>
<path id="Path 10" d="M119.171 52.4705V42.6781H123.625V52.4705H119.171Z" fill="#231F20"/>
<path id="Path 11" d="M135.071 53.6998V26.6452H144.608V31.0993H139.526V53.6932L135.071 53.6998Z" fill="#231F20"/>
<path id="Path 12" d="M144.577 54.6991V37.8307H162.408V54.6991H144.577ZM149.034 50.2406H157.955V42.2892H149.034V50.2406Z" fill="#231F20"/>
<path id="Path 13" d="M159.054 70.2226V63.624H143.907V59.1699H163.509V70.2204L159.054 70.2226Z" fill="#231F20"/>
<path id="Path 14" d="M144.302 84.0336V68.2936H148.76V79.5773H162.609V84.0336H144.302Z" fill="#231F20"/>
<path id="Path 15" d="M188.32 69.5844V26.6424H200V31.0966H192.777V69.5888L188.32 69.5844Z" fill="#231F20"/>
<path id="Path 16" d="M178.273 50.2418V45.4292H173.82V50.2418H166.12V54.6959H185.973V50.2418H178.273Z" fill="#231F20"/>
<path id="Path 17" d="M184.926 26.6123H178.269V22.6531H173.816V26.6123H167.145V31.0686H169.125C168.308 32.3157 167.844 33.7604 167.781 35.2499C167.718 36.7395 168.059 38.2183 168.768 39.5298C169.477 40.8414 170.527 41.9369 171.808 42.7004C173.089 43.4639 174.552 43.867 176.043 43.867C177.534 43.867 178.998 43.4639 180.279 42.7004C181.559 41.9369 182.61 40.8414 183.319 39.5298C184.028 38.2183 184.369 36.7395 184.306 35.2499C184.243 33.7604 183.778 32.3157 182.961 31.0686H184.941L184.926 26.6123ZM176.031 39.4136C175.277 39.4128 174.539 39.1883 173.912 38.7685C173.285 38.3487 172.796 37.7526 172.508 37.0553C172.22 36.3581 172.145 35.5909 172.292 34.851C172.44 34.1111 172.804 33.4316 173.337 32.8982C173.871 32.3649 174.551 32.0016 175.291 31.8545C176.031 31.7074 176.798 31.7829 177.496 32.0715C178.193 32.3601 178.789 32.8489 179.209 33.4761C179.628 34.1033 179.852 34.8407 179.853 35.5952C179.851 36.6078 179.448 37.5784 178.731 38.2941C178.015 39.0099 177.044 39.4125 176.031 39.4136Z" fill="#231F20"/>
<path id="Path 18" d="M17.7936 3.95917H11.1276V0H6.66821V3.95917H0V8.41547H1.97999C1.16256 9.66253 0.697668 11.1074 0.63446 12.597C0.571253 14.0867 0.912074 15.5657 1.62093 16.8775C2.32978 18.1893 3.38026 19.2851 4.6611 20.0488C5.94194 20.8125 7.40551 21.2156 8.89681 21.2156C10.3881 21.2156 11.8517 20.8125 13.1325 20.0488C14.4134 19.2851 15.4638 18.1893 16.1726 16.8775C16.8815 15.5657 17.2224 14.0867 17.1592 12.597C17.096 11.1074 16.6311 9.66253 15.8136 8.41547H17.7936V3.95917ZM8.89903 16.7606C8.14366 16.7606 7.40524 16.5366 6.77718 16.1171C6.14911 15.6975 5.65962 15.1012 5.37056 14.4034C5.08149 13.7057 5.00586 12.9379 5.15323 12.1972C5.30059 11.4565 5.66432 10.7762 6.19844 10.2421C6.73257 9.70813 7.41307 9.34441 8.15392 9.19707C8.89478 9.04974 9.6627 9.12535 10.3606 9.41436C11.0584 9.70337 11.6549 10.1928 12.0746 10.8208C12.4942 11.4487 12.7182 12.187 12.7182 12.9422C12.717 13.9545 12.3143 14.925 11.5983 15.6409C10.8824 16.3567 9.91158 16.7594 8.89903 16.7606Z" fill="#231F20"/>
<path id="Path 19" d="M21.3771 20.5504V3.67546H33.0679V8.12954H25.8431V20.5482L21.3771 20.5504Z" fill="#231F20"/>
<path id="Path 20" d="M9.8342 38.4756V23.4439H14.2914V38.4756H9.8342Z" fill="#231F20"/>
<path id="Path 21" d="M42.6172 32.7737V20.5266H30.6492V16.0725H47.0832V32.7759L42.6172 32.7737Z" fill="#231F20"/>
<path id="Path 22" d="M42.6149 45.9539V39.3553H27.4701V34.9011H47.0743V45.9539H42.6149Z" fill="#231F20"/>
<path id="Path 23" d="M42.6172 64.6631V52.4182H30.6492V47.9619H47.0832V64.6653L42.6172 64.6631Z" fill="#231F20"/>
<path id="Path 24" d="M114.633 50.2428H96.4856V47.0821H110.748V34.9031H9.8342V39.3572H106.295V42.6301H92.0306V54.7057H199.998V50.2516L114.633 50.2428Z" fill="#2C803E"/>
</g>
</svg>
