<svg preserveAspectRatio="none" width="100%" height="100%" overflow="visible" style="display: block;" viewBox="0 0 173.739 73" fill="none" xmlns="http://www.w3.org/2000/svg">
<g id="Group 32">
<path id="Path 1" d="M63.9453 14.0498V37.5521H67.8172V14.0498H63.9453Z" fill="#231F20"/>
<path id="Path 2" d="M60.2229 20.8956C60.2225 22.324 59.7985 23.7202 59.0045 24.9077C58.2104 26.0953 57.082 27.0207 55.762 27.5671C54.4419 28.1135 52.9895 28.2562 51.5882 27.9773C50.187 27.6984 48.9 27.0103 47.8899 26.0002C46.8798 24.99 46.1919 23.703 45.9133 22.302C45.6347 20.901 45.7779 19.4489 46.3247 18.1293C46.8716 16.8096 47.7975 15.6817 48.9854 14.8881C50.1734 14.0946 51.5701 13.671 52.9988 13.671C53.9476 13.671 54.8872 13.8579 55.7638 14.221C56.6404 14.5841 57.4368 15.1163 58.1077 15.7872C58.7785 16.4581 59.3106 17.2545 59.6736 18.131C60.0365 19.0075 60.2232 19.9469 60.2229 20.8956ZM52.9988 17.5422C52.3367 17.5426 51.6896 17.7392 51.1393 18.1072C50.5889 18.4752 50.1601 18.998 49.9069 19.6097C49.6537 20.2213 49.5876 20.8942 49.7168 21.5434C49.8461 22.1926 50.1649 22.7889 50.6331 23.257C51.1012 23.7251 51.6976 24.0438 52.347 24.1731C52.9963 24.3023 53.6694 24.2362 54.2812 23.983C54.8929 23.7299 55.4158 23.3011 55.7839 22.7509C56.152 22.2007 56.3486 21.5537 56.349 20.8918C56.3493 20.4518 56.2628 20.0162 56.0945 19.6097C55.9262 19.2032 55.6794 18.8338 55.3683 18.5227C55.0572 18.2116 54.6877 17.9649 54.2812 17.7966C53.8746 17.6284 53.4388 17.542 52.9988 17.5422Z" fill="#231F20"/>
<g id="Group 1">
<path id="Path 3" d="M36.4051 9.53162C35.3965 8.93568 34.633 8.00031 34.2513 6.8929C33.8657 8.03837 33.1117 9.02396 32.107 9.69594L31.5929 9.25073C32.3142 8.82775 32.9099 8.22039 33.3187 7.49101C33.7274 6.76162 33.9346 5.93651 33.9188 5.10058V3.73248H34.5743V5.10058C34.5567 5.90322 34.7594 6.69535 35.1603 7.39094C35.5613 8.08654 36.1451 8.65903 36.8485 9.04629L36.4051 9.53162ZM38.215 7.0209V11.0947H37.5748V3.27199H38.215V6.44962H39.4362V7.02282L38.215 7.0209Z" fill="#231F20"/>
<path id="Path 4" d="M40.7828 7.44879V3.85085H44.5573V4.39927H41.4155V6.88322C42.7798 6.93352 44.1458 6.85611 45.4957 6.65202L45.5053 7.19087C43.9411 7.4086 42.3614 7.49485 40.7828 7.44879ZM41.6276 10.9149V8.37168H42.2602V10.3799H46.9578V10.9168L41.6276 10.9149ZM46.7017 6.0482V8.95258H46.071V3.27951H46.7017V5.50555H47.8484V6.05205L46.7017 6.0482Z" fill="#231F20"/>
<path id="Path 5" d="M54.933 7.46406V5.62019H53.0219V7.17554H49.3906V3.64641H50.0309V4.87695H52.3892V3.64641H53.0219V5.06419H54.933V3.27951H55.5656V7.46406H54.933ZM52.3874 5.40811H50.029V6.65202H52.3874V5.40811ZM50.3119 11.0009V7.97808H50.9444V8.91818H54.9082V7.97808H55.5503V11.0009H50.3119ZM54.8986 9.44747H50.9444V10.4735H54.9082L54.8986 9.44747Z" fill="#231F20"/>
<path id="Path 6" d="M57.7475 5.53424C57.7753 5.00699 58.0044 4.5105 58.3875 4.14713C58.7707 3.78376 59.2787 3.58121 59.8068 3.58121C60.3349 3.58121 60.8428 3.78376 61.226 4.14713C61.6091 4.5105 61.8382 5.00699 61.866 5.53424C61.8382 6.06149 61.6091 6.55793 61.226 6.9213C60.8428 7.28467 60.3349 7.48727 59.8068 7.48727C59.2787 7.48727 58.7707 7.28467 58.3875 6.9213C58.0044 6.55793 57.7753 6.06149 57.7475 5.53424ZM58.424 5.53424C58.424 5.90114 58.5698 6.25298 58.8293 6.51242C59.0888 6.77185 59.4407 6.91763 59.8077 6.91763C60.1747 6.91763 60.5266 6.77185 60.7861 6.51242C61.0456 6.25298 61.1914 5.90114 61.1914 5.53424C61.1914 5.16735 61.0456 4.81544 60.7861 4.55601C60.5266 4.29657 60.1747 4.15086 59.8077 4.15086C59.4407 4.15086 59.0888 4.29657 58.8293 4.55601C58.5698 4.81544 58.424 5.16735 58.424 5.53424ZM58.9783 10.9149V8.48253H59.6204V10.378H64.4308V10.9149H58.9783ZM63.6032 8.95258V3.27951H64.2339V8.94495L63.6032 8.95258Z" fill="#231F20"/>
</g>
<path id="Path 7" d="M82.5778 31.4152V17.5431H71.9327V13.6757H86.4574V31.419L82.5778 31.4152Z" fill="#231F20"/>
<path id="Path 8" d="M90.1782 31.5347V13.671H94.0483V31.5347H90.1782Z" fill="#231F20"/>
<path id="Path 9" d="M109.84 37.6633V27.0261H99.4393V23.153H113.714V37.6652L109.84 37.6633Z" fill="#231F20"/>
<path id="Path 10" d="M103.523 45.5811V37.0744H107.393V45.5811H103.523Z" fill="#231F20"/>
<path id="Path 11" d="M117.337 46.6491V23.1468H125.622V27.016H121.207V46.6433L117.337 46.6491Z" fill="#231F20"/>
<path id="Path 12" d="M125.594 47.517V32.8634H141.084V47.517H125.594ZM129.466 43.6439H137.216V36.7365H129.466V43.6439Z" fill="#231F20"/>
<path id="Path 13" d="M138.169 61.0024V55.2702H125.011V51.4009H142.039V61.0005L138.169 61.0024Z" fill="#231F20"/>
<path id="Path 14" d="M125.356 73V59.3266H129.228V69.1288H141.258V73H125.356Z" fill="#231F20"/>
<path id="Path 15" d="M163.593 60.4479V23.1442H173.739V27.0136H167.465V60.4518L163.593 60.4479Z" fill="#231F20"/>
<path id="Path 16" d="M154.863 43.6451V39.4644H150.995V43.6451H144.306V47.5144H161.552V43.6451H154.863Z" fill="#231F20"/>
<path id="Path 17" d="M160.643 23.118H154.86V19.6786H150.992V23.118H145.198V26.9892H146.918C146.208 28.0726 145.804 29.3276 145.75 30.6215C145.695 31.9155 145.991 33.2001 146.607 34.3395C147.223 35.4788 148.136 36.4305 149.248 37.0938C150.361 37.757 151.632 38.1072 152.927 38.1072C154.223 38.1072 155.494 37.757 156.606 37.0938C157.719 36.4305 158.632 35.4788 159.247 34.3395C159.863 33.2001 160.159 31.9155 160.105 30.6215C160.05 29.3276 159.647 28.0726 158.937 26.9892H160.657L160.643 23.118ZM152.917 34.2386C152.261 34.2378 151.621 34.0428 151.076 33.6781C150.531 33.3135 150.107 32.7956 149.856 32.1899C149.606 31.5842 149.541 30.9178 149.669 30.275C149.797 29.6322 150.113 29.0419 150.577 28.5786C151.04 28.1153 151.631 27.7997 152.274 27.6719C152.917 27.5441 153.583 27.6097 154.189 27.8604C154.795 28.1112 155.312 28.5358 155.677 29.0806C156.041 29.6254 156.236 30.2661 156.236 30.9215C156.235 31.8011 155.885 32.6442 155.262 33.266C154.64 33.8878 153.797 34.2375 152.917 34.2386Z" fill="#231F20"/>
<path id="Path 18" d="M15.4573 3.43933H9.66657V0H5.79268V3.43933H0V7.31052H1.72001C1.00991 8.39384 0.606064 9.64897 0.551156 10.943C0.496248 12.2371 0.792319 13.522 1.4081 14.6615C2.02388 15.8011 2.93643 16.753 4.0491 17.4164C5.16177 18.0798 6.43317 18.43 7.72866 18.43C9.02416 18.43 10.2956 18.0798 11.4082 17.4164C12.5209 16.753 13.4334 15.8011 14.0492 14.6615C14.6649 13.522 14.9611 12.2371 14.9062 10.943C14.8513 9.64897 14.4474 8.39384 13.7373 7.31052H15.4573V3.43933ZM7.73059 14.5599C7.0744 14.5599 6.43294 14.3654 5.88734 14.0009C5.34174 13.6364 4.91651 13.1184 4.6654 12.5123C4.41429 11.9061 4.34859 11.2392 4.47661 10.5957C4.60463 9.95229 4.92059 9.36125 5.38459 8.89735C5.84858 8.43345 6.43974 8.11749 7.08332 7.9895C7.72689 7.86151 8.39399 7.92719 9.00023 8.17826C9.60647 8.42932 10.1246 8.85451 10.4892 9.4C10.8537 9.94549 11.0483 10.5868 11.0483 11.2429C11.0473 12.1223 10.6975 12.9654 10.0755 13.5872C9.4535 14.2091 8.6102 14.5589 7.73059 14.5599Z" fill="#231F20"/>
<path id="Path 19" d="M18.5692 17.852V3.19272H28.725V7.06198H22.4488V17.8501L18.5692 17.852Z" fill="#231F20"/>
<path id="Path 20" d="M8.54139 33.4238V20.3657H12.4134V33.4238H8.54139Z" fill="#231F20"/>
<path id="Path 21" d="M37.0212 28.4705V17.8314H26.6246V13.9621H40.9008V28.4724L37.0212 28.4705Z" fill="#231F20"/>
<path id="Path 22" d="M37.019 39.9202V34.1879H23.8627V30.3186H40.8929V39.9202H37.019Z" fill="#231F20"/>
<path id="Path 23" d="M37.0212 56.1729V45.5357H26.6246V41.6645H40.9008V56.1748L37.0212 56.1729Z" fill="#231F20"/>
<path id="Path 24" d="M99.5805 43.6458H83.8155V40.9001H96.2054V30.3202H8.54139V34.1895H92.3373V37.0327H79.9454V47.5227H173.737V43.6534L99.5805 43.6458Z" fill="#2C803E"/>
</g>
</svg>
