<svg preserveAspectRatio="none" width="100%" height="100%" overflow="visible" style="display: block;" viewBox="0 0 530.325 282.354" fill="none" xmlns="http://www.w3.org/2000/svg">
<path id="Union" d="M220.842 178.158C230.044 180.94 219.712 190.718 217.35 195.439C215.621 198.896 222.49 203.432 221.029 206.021C218.125 207.184 215.449 202.313 214.328 200.122C209.907 208.998 202.566 219.061 197.035 227.392C185.916 244.14 174.293 261.486 159.839 275.537C157.013 278.284 154.475 279.97 151.055 281.902C147.488 282.906 143.001 282.444 141.939 278.38C139.385 268.601 145.638 255.026 149.621 246.323C157.282 229.589 166.752 213.242 180.124 200.463C184.845 195.975 187.978 192.915 194.349 190.644C198.126 189.297 202.413 188.988 206.359 189.937C207.072 190.108 210.607 191.831 211.496 192.253L211.795 192.124C212.62 190.744 212.509 188.972 212.913 187.728C213.806 184.982 218.461 179.572 220.842 178.158ZM213.647 82.5488C218.4 80.8377 222.162 86.3188 221.293 90.6592C219.585 98.3372 212.631 102.901 205.4 104.652C202.692 105.308 199.595 105.541 197.201 106.853C195.479 107.979 195.854 112.446 196.335 114.121C198.718 115.764 200.638 116.038 203.715 115.359C211.634 113.571 221.004 109.805 226.397 103.519C227.368 102.313 229.246 97.7756 229.844 96.9004C230.729 95.5509 236.812 86.8321 238.264 87.3291C245.671 89.864 239.936 94.4842 237.792 97.9561C235.273 102.037 231.6 106.838 231.77 111.514C233.088 111.455 235.103 111.459 236.256 110.863C244.814 106.444 251.271 97.5886 256.848 89.9619C257.421 89.1778 258.18 88.6774 258.981 88.1885C261.02 89.4973 261.503 89.7152 262.582 91.9268C261.713 94.4289 259.928 97.4927 258.635 99.9014C253.82 108.877 249.144 118.148 243.57 126.656C243.262 127.127 243.364 127.456 243.469 127.939C250.47 127.215 257.5 126.785 264.536 126.649C272.002 126.492 298.97 126.928 307.553 129.095C308.064 129.224 309.305 131.343 309.409 132.647C308.949 133.905 308.311 133.917 306.969 133.772C288.876 131.828 270.67 131.021 252.517 132.603C248.081 132.989 243.506 133.973 239.219 134.298C237.794 137.176 234.835 141.918 233.064 144.683C235.015 144.674 236.623 145.234 238.493 145.719C258.124 150.806 272.609 166.915 272.866 187.631C273 198.358 267.842 208.24 260.143 215.461C258.086 217.391 255.766 219.774 253.331 221.365C240.415 229.809 224.154 233.982 208.815 234.197C207.929 234.209 206.859 234.048 206.011 233.904C208.022 236.661 212.863 239.922 215.691 242.011C227.884 251.018 241.468 257.172 255.342 263.035C264.404 266.866 272.852 270.259 282.313 273.009C286.293 274.166 292.033 275.207 293.027 279.79L292.859 280.431C290.173 281.44 256.399 268.366 250.993 265.749C243.995 262.359 233.91 257.931 227.249 253.899C221.803 250.603 198.171 235.586 199.465 229.086C200.226 228.531 202.52 228.781 203.607 228.794C227.033 229.062 251.776 217.518 262.286 195.825C267.912 184.209 267.771 173.61 260.013 163.012C253.289 153.826 241.113 150.043 230.499 147.66C228.592 152.045 220.257 163.766 215.975 165.155C209.419 167.282 199.872 161.499 197.572 155.08C196.032 150.784 197.589 148.605 197.069 146.973C192.218 146.81 180.078 148.88 175.152 149.964C145.229 156.545 108.588 165.774 96.3792 197.593C95.1258 200.854 95.5158 206.622 95.4564 210.161C98.8218 216.387 99.6939 218.67 106.275 222.709C107.989 223.761 109.148 224.717 111.252 225.35C112.109 226.523 114.456 228.933 112.762 229.985C108.701 229.971 98.609 222.415 96.0833 219.38C83.2526 203.76 89.0905 183.284 102.553 170.219C113.189 159.896 123.653 156.259 137.327 151.618C158.348 144.483 179.658 141.879 201.767 141.186C202.37 140.717 203.036 140.231 203.611 139.731C212.322 132.155 224.203 131.383 234.822 128.433C238.257 124.294 240.265 119.125 243.138 114.719C243.563 114.283 244.979 111.827 245.378 111.162C244.27 112.02 243.545 112.552 242.581 113.595C240.311 115.59 236.994 117.082 234.128 117.997C230.038 116.837 227.431 115.815 225.669 111.686C218.671 117.77 202.272 126.336 194.462 117.265C183.104 104.07 201.8 86.814 213.647 82.5488ZM209.484 195.495C207.08 195.105 204.681 194.506 202.281 194.835C198.044 196.006 195.312 196.913 191.815 199.689C172.935 214.679 160.542 237.324 151.257 259.186C148.824 264.914 147.25 271.14 145.843 277.194C148.288 276.113 148.711 275.952 150.736 274.118C160.058 267.141 170.912 252.401 177.856 242.807C188.909 227.383 199.457 211.604 209.484 195.495ZM389.681 164.193C390.304 164.214 391.064 164.25 391.58 164.629C395.924 167.809 393.62 170.039 391.378 173.36C385.187 182.535 378.632 191.444 372.472 200.618C376.286 200.23 383.622 200.405 387.631 200.424C394.681 200.457 402.442 200.242 409.438 200.522C411.091 201.509 413.262 202.968 412.85 205.136C411.698 206.204 408.633 205.952 407.009 205.897C394.424 205.472 381.494 206.283 368.956 205.887C365.24 211.927 347.562 238.413 347.619 243.96C347.627 244.779 347.887 245.096 348.44 245.637C348.847 245.759 349.254 245.859 349.682 245.829C352.982 245.599 368.436 235.355 370.991 232.607C373.808 229.578 375.609 225.592 378.3 222.401C381.899 218.135 389.556 211.686 395.361 211.256C397.789 211.076 399.1 211.835 400.888 213.385C401.368 214.609 401.869 215.93 401.978 217.249C402.214 220.142 401.124 222.843 399.355 225.092C392.63 233.642 378.548 234.445 377.481 235.843C376.544 237.072 376.347 239.938 376.549 241.456C376.739 242.878 377.706 243.488 378.778 244.277C388.913 244.673 397.696 239.474 405.979 234.165C408.511 232.542 411.888 226.783 414.807 228.988C415.31 229.367 415.624 229.946 415.665 230.574C415.746 231.802 414.89 232.896 414.132 233.775C407.168 241.865 386.25 255.721 376.188 247.143C373.759 245.103 372.254 242.175 372.005 239.016C366.797 243.656 360.272 248.356 354.08 251.164C349.895 253.062 343.055 254.498 341.278 249.018C340.416 246.357 341.483 244.682 342.494 242.356C338.753 245.629 335.813 246.869 330.764 245.968C330.497 245.913 330.229 245.847 329.967 245.769C327.788 245.128 326.894 243.06 325.854 241.137C325.519 241.051 324.505 241.837 324.15 242.117C320.476 245.024 307.999 252.339 305.781 244.438C304.955 241.497 305.589 237.952 307.102 235.206C304.39 235.379 302.047 235.348 299.364 234.972C296.463 242.697 289.862 256.75 279.581 252.301C271.787 248.927 273.854 236.687 276.981 230.759C279.316 226.331 280.442 223.255 285.372 221.496C286.371 222.183 287.236 223.005 288.136 223.817C287.116 220.432 285.196 211.96 291.943 213.394C298.261 214.736 301.248 224.602 299.948 230.352C301.777 230.492 306.966 231.217 308.336 229.627C311.222 226.276 313.509 222.325 316.508 218.97C318.236 217.038 319.744 215.008 322.318 217.359C325.073 219.969 323.202 222.24 321.378 224.671C317.009 230.494 312.755 235.87 312.747 243.481C323.656 239.851 326.856 230.048 334.22 223.381C335.883 224.068 337.739 224.705 338.284 226.613C339.095 229.452 327.926 240.672 331.407 242.738C334.284 242.912 340.343 238.075 342.562 236.289C346.649 233.003 349.044 226.502 351.534 222.002C353.434 218.577 359.296 213.493 353.44 210.312C344.101 205.244 331.809 206.149 321.474 205.67C318.773 205.545 316.78 205.119 315.906 202.363C315.708 201.745 315.997 201.453 316.319 201.02C318.107 200 323.501 200.421 325.766 200.425L341.423 200.421L355.894 200.396C358.849 200.39 362.407 200.279 365.308 200.564C366.689 195.881 386.149 168.396 389.681 164.193ZM289.063 225.823C288.219 227.473 286.802 228.06 285.739 229.538C282.059 234.641 278.694 241.485 279.174 247.924C280.845 247.613 281.676 247.479 283.274 246.771C287.137 243.286 289.384 241.171 291.826 236.388C292.495 235.081 293.237 233.309 293.894 232.121C293.258 231.39 289.09 225.888 289.063 225.823ZM395.533 217.47C390.691 221.072 387.886 222.978 383.42 227.23L383.368 227.597L383.889 227.564C388.352 226.083 391.399 223.908 394.409 220.279C394.938 219.64 395.997 218.532 396.215 217.776C395.917 217.561 395.888 217.477 395.533 217.47ZM344.278 204.88C345.699 205.524 346.359 205.831 347.895 206.238C351.128 207.387 355.471 209.48 357.829 211.969C358.992 209.985 360.264 207.391 361.943 205.939C358.728 205.559 353.221 205.114 350.017 205.292C347.837 205.025 346.47 204.906 344.278 204.88ZM399.896 43.8066C401.271 44.315 403.813 47.1414 403.123 48.5439C400.186 54.5325 395.858 59.8278 392.428 65.543C379.649 86.5247 366.264 107.138 353.729 128.266C348.08 137.581 342.683 147.047 337.545 156.653C336.121 159.346 334.702 161.95 334.279 165.003C334.183 165.699 334.089 166.312 333.64 166.872C332.984 166.982 332.659 166.803 332.127 166.418C331.139 165.701 329.615 164.423 329.444 163.146C328.899 159.05 341.935 135.459 344.8 130.541C346.951 126.844 349.385 123.319 351.549 119.633C353.77 115.853 355.82 111.999 358.114 108.255C359.463 106.667 364.215 98.9249 365.551 96.8018C363.338 98.6338 361.316 101.261 359.443 103.438C358.381 104.67 357.863 105.938 356.485 106.879C348.9 111.198 339.839 123.456 330.319 118.245C329.449 116.723 328.85 115.904 328.858 114.149L328.861 113.488C328.349 113.274 327.292 114.432 326.703 114.781C325.767 115.521 324.449 115.717 323.465 116.215C319.568 118.184 314.392 115.85 313.136 111.613C311.738 106.886 315.964 100.789 318.161 96.6445C315.608 98.1129 312.801 100.52 310.471 102.41C306.423 105.7 302.432 109.059 298.501 112.488C296.882 113.906 291.298 119.505 289.704 120.051C288.371 120.05 286.147 118.339 285.996 117.261C285.54 114.012 289.149 109.152 290.771 106.562C287.704 106.677 286.396 106.636 283.422 105.911C281.883 111.872 278.248 118.83 273.095 122.441C265.57 127.686 257.452 121.578 258.153 112.947C258.692 106.308 261.836 98.7647 266.709 94.0996C269.41 91.5144 271.082 93.8569 272.73 95.9004C272.086 94.2674 271.3 92.1032 271.126 90.4121C270.496 84.2844 275.773 82.9661 279.784 86.832C284.46 91.3405 284.139 96.2263 284.266 102.073C286.967 102.113 289.57 101.991 292.266 101.878C294.586 98.7896 299.153 87.8062 302.778 93.4053C304.163 95.5454 303.849 96.5989 302.427 98.4688C301.669 99.8899 300.901 101.306 300.122 102.716C301.638 101.527 302.567 100.685 303.952 99.3408C307.806 94.7561 314.869 89.8727 321.107 91.1426C322.671 92.3513 323.266 92.9412 324.205 94.6895C323.354 104.176 319.381 105.734 317.414 112.731C322.861 111.231 326.795 109.198 330.848 105.224C335.866 100.304 338.375 92.4021 346.85 92.8174C352.652 92.8936 351.863 93.6219 356.17 97.0986C356.941 96.5 360.063 92.4139 361.314 91.1123C370.894 81.0446 379.757 70.3233 387.848 59.0264C391.066 54.5835 393.933 50.0311 396.982 45.4873C397.61 44.5513 398.705 43.7408 399.896 43.8066ZM224.161 146.858C217.513 146.247 212.531 146.234 205.83 146.354C199.335 153.034 201.635 160.513 211.59 160.578C213.106 158.899 214.191 157.937 215.964 156.496C218.596 153.445 221.526 149.78 224.161 146.858ZM128.074 0C130.767 1.11904 133.919 0.476686 136.663 0.992188C151.816 3.83886 168.208 7.81197 179.22 19.3838C182.513 22.8436 183.446 23.4444 185.561 27.7988C194.095 45.3695 182.441 59.0605 167.464 67.4531C164.833 68.9231 162.204 69.9497 159.513 71.2041C172.754 75.9967 185.061 85.7977 184.742 101.202C184.471 114.261 171.342 124.849 160.92 130.774C136.461 144.681 107.244 150.107 79.2943 149.088C63.5161 148.509 42.7189 145.571 30.7269 134.245C27.0917 130.539 25.6901 126.055 25.6488 120.991C25.3478 110.553 36.2922 99.1107 44.6566 94.2646C57.4821 86.8341 75.2241 82.7716 89.7952 86.3652C90.4249 86.5207 94.8371 87.8777 95.0208 87.7119C97.5452 85.4329 98.5011 80.9872 101.078 78.5469C99.8293 78.1023 98.0276 77.4759 96.9056 76.7891C84.3364 69.0934 103.267 66.4864 108.33 65.5547C109.998 62.178 114.533 55.1445 116.805 52.291C116.167 51.2208 115.483 49.7351 114.916 48.5928C115.17 48.0115 115.446 47.4403 115.744 46.8809C116.878 44.7853 124.676 36.1204 126.823 35.623C127.593 35.4443 128.35 35.7221 128.975 36.165C129.913 36.8296 130.808 38.0383 130.947 39.2051C131.25 41.77 118.506 62.1726 116.162 65.1768C124.529 64.4883 135.67 65.0425 143.767 66.9238C145.992 67.4407 147.92 67.4899 150.073 68.4443C153.523 67.302 166.843 59.6182 169.988 57.1758C175.266 53.0766 182.467 45.4443 183.115 38.3633C183.61 32.9475 182.537 29.1534 179.179 24.8555C168.882 11.6776 149.449 7.81337 133.775 5.64355C126.007 4.56836 116.24 5.50827 108.482 6.65039C78.8438 11.0133 48.2351 26.1009 27.2972 47.6641C21.9655 53.1549 16.3421 61.2989 12.3558 67.8994C10.7779 70.5121 9.59759 74.4114 8.42903 77.1064C7.37653 79.5335 4.98346 90.4765 3.80696 91.4053C2.78538 91.2746 1.52185 90.328 0.608715 89.7451C0.504027 89.5106 0.0161745 88.3587 0.0032461 88.1396C-0.156382 78.502 5.60084 65.0368 10.7552 57.1318C20.6793 41.9115 35.6196 28.5495 51.6077 19.9893C54.5001 18.4406 57.1828 16.4929 60.0726 15.1123C74.6658 8.14035 90.3067 3.20633 106.359 1.08496C109.729 0.641685 113.013 0.911876 116.431 0.0693359L116.705 0H128.074ZM171.591 81.8584C168.458 79.0361 156.862 73.38 153.077 73.6973C142.162 77.7702 126.688 80.0549 115.118 79.9229C112.772 79.8961 109.661 80.0123 107.409 79.6416C105.555 83.6349 103.225 86.8356 101.568 90.2754C104.04 91.7888 107.028 93.057 109.28 94.8467C115.917 100.124 121.117 106.368 125.549 113.559C126.238 114.676 126.847 116.345 125.299 116.934C122.055 116.141 118.338 109.276 116.178 106.693C114.58 104.783 113.187 103.491 111.43 101.794C107.397 97.8982 104.168 96.1143 99.2952 93.6045C96.7168 97.8551 94.0691 103.281 91.1907 107.353C90.9551 107.686 90.374 107.883 89.971 107.987C88.4309 107.985 85.7868 105.616 86.0989 104.415C86.9515 101.134 90.9768 94.1029 93.0364 91.6533C90.9503 91.4349 89.0428 90.9139 87.0052 90.6836C72.0893 88.9978 55.5391 94.4767 44.0579 103.769C42.7125 104.877 41.3909 106.016 40.095 107.182C35.2525 112.648 30.6911 118.017 30.8792 125.745C31.0528 132.88 41.6598 137.335 47.1312 139.099C62.5652 144.074 79.031 144.868 95.0872 143.512C107.056 142.603 117.619 140.303 129.152 137.132C135.84 135.761 140.585 133.16 146.545 130.302C156.792 125.388 165.041 120.858 172.682 112.172C181.624 102.005 181.791 91.0448 171.591 81.8584ZM229.888 135.729C222.71 137.906 219.394 138.605 212.296 141.843L215.951 142.021C227.321 142.071 224.683 146.224 230.901 135.759L230.732 135.569L229.888 135.729ZM465.485 35.6162C467.278 35.3955 469.406 37.7847 469.603 39.4873C469.686 40.2016 468.619 42.093 468.142 42.7549C461.938 51.3508 456.029 60.1248 450.056 68.8818C449.478 69.7302 448.889 70.5997 448.217 71.375C448.095 71.5143 447.97 71.6518 447.843 71.7861C453.845 71.1903 460.342 71.6904 466.393 71.4951C467.454 71.4609 468.602 71.493 469.66 71.5625C471.244 68.2073 482.944 47.5138 485.302 46.6094C485.901 46.3798 486.485 46.439 487.061 46.7139C488.151 47.2334 489.007 48.3636 489.378 49.4922C489.843 50.9055 489.339 51.889 488.691 53.1172C486.781 56.7349 478.942 69.4292 476.536 71.7139C480.888 71.4464 487.517 70.2404 488.309 75.9785C488.322 76.0721 488.262 76.3606 488.234 76.4658C486.955 77.4707 475.714 77.1186 473.654 76.9326C469.585 84.7649 463.025 94.8324 457.934 102.152C461.343 99.5701 470.597 91.9019 473.962 98.3916C475.597 101.541 475.192 109.14 475.179 112.818C478.682 111.56 486.143 106.69 487.435 102.997C490.37 94.6118 497.318 89.1619 504.622 84.6299C506.415 83.5264 509.195 81.9727 511.398 82.2871C517.301 83.1295 518.027 89.6344 515.643 94.0918C511.387 102.047 501.075 105.804 492.445 106.343C491.313 110.829 489.892 112.514 494.012 115.615C504.106 116.029 516.893 109.243 524.174 102.542C525.705 101.132 527.877 99.0623 529.997 100.993C530.254 101.582 530.513 102.336 530.134 102.977C526.219 109.578 515.987 116.109 509.267 118.911C504.576 120.868 498.481 122.233 494.034 120.339C489.584 118.444 488.133 114.876 486.511 110.925C483.968 113.387 478.109 116.997 474.409 116.907C473.041 116.874 472.299 116.408 471.116 115.767C468.347 110.967 468.186 105.198 468.781 99.7686C460.493 105.576 454.302 113.746 447.246 120.882C443.743 124.425 442.329 122.419 440.515 118.867C441.169 117.171 441.4 116.707 442.48 115.256C442.854 114.959 444.016 112.935 444.34 112.402C443.525 113.029 442.697 113.755 441.909 114.425C436.309 119.199 429.539 123.999 421.832 123.808C418.241 123.717 415.922 121.151 416.581 117.542C418.055 109.478 422.557 102.101 426.099 94.8096C426.667 93.0257 432.529 85.7534 431.13 83.9521C426.646 78.1879 418.114 78.4232 411.619 77.3252C406.023 76.3787 397.232 78.1883 392.398 75.7598C391.855 74.7742 391.139 73.6742 391.012 72.5791L391.206 71.9609C392.875 71.28 436.235 71.2307 440.562 71.5928C442.248 67.9498 462.857 36.984 465.485 35.6162ZM273.275 97.5039C268.399 101.255 263.744 110.439 263.004 116.577C262.887 117.538 262.81 118.216 263.386 119.04C264.618 119.609 265.767 119.089 266.919 118.425C272.62 114.636 275.177 109.502 278.088 103.362C277.469 102.72 273.335 97.5437 273.275 97.5039ZM444.281 76.9199C441.369 82.1459 438.019 87.2504 434.993 92.4092C432.861 96.045 419.726 114.742 423.696 117.839C428.859 116.956 443.787 106.096 448.629 102.412C454.517 97.9353 460.659 83.3496 466.194 77.292L466.126 76.9512L465.83 76.9404C462.047 77.1822 457.221 76.9956 453.363 77.0244C451.139 77.041 446.328 77.1336 444.281 76.9199ZM352.203 100.63C352.144 98.2458 348.962 98.7492 347.234 98.8711C339.854 103.613 337.648 107.901 333.938 115.122C334.994 114.27 336.881 112.67 337.955 112.034C339.442 111.16 351.589 101.545 352.203 100.63ZM215.309 88.6953C211.882 90.382 205.624 95.9223 202.92 98.5635L202.854 98.9297L202.992 99.0703C207.923 96.9656 212.423 94.4338 215.54 89.4648C215.652 89.2867 215.555 89.1436 215.487 88.8525L215.309 88.6953ZM510.72 88.7207C507.783 90.4787 500.572 96.0983 498.281 98.5918L498.19 98.9668L498.332 99.0322C501.397 98.0852 511.283 92.1014 510.822 88.8281L510.72 88.7207ZM277.335 89.8174C275.003 92.2995 276.396 96.0984 278.163 98.5312L278.762 98.5469C279.382 96.9272 278.529 92.1598 278.065 90.3467C277.774 90.0316 277.748 89.9398 277.335 89.8174ZM419.926 76.1221C421.301 76.7867 421.914 77.1209 423.437 77.4609C424.285 78.005 425.546 78.4383 426.503 78.8828C429.313 80.187 431.273 81.2544 433.538 83.3389C434.413 81.4958 435.424 78.988 436.906 77.6602C437.225 77.3738 437.093 77.5254 437.215 77.0518C436.115 76.789 427.141 76.5666 425.949 76.7734C424.452 76.3359 421.535 76.1786 419.926 76.1221ZM140.991 70.998C135.324 70.4993 123.293 70.1836 117.771 70.6904C112.866 70.8455 102.846 72.0502 98.3392 73.999C103.649 74.7904 116.245 75.0761 121.365 74.2793C128.795 73.5727 133.747 72.8726 140.991 70.998Z" fill="#0AC200"/>
</svg>
