<svg preserveAspectRatio="none" width="100%" height="100%" overflow="visible" style="display: block;" viewBox="48.3 12.5929 46.387 15.2731" fill="none" xmlns="http://www.w3.org/2000/svg">
<g id="Frame 371 Text">
<path id="Vector_4" d="M60.6574 13.0683V17.4284H58.8386V14.6767H49.3818V13.0683H60.6574ZM60.6574 22.3303V27.4262H58.8386V23.9187H49.2167V22.3303H54.1186V20.1797H48.3001V18.5927H61.7399V20.1797H55.9203V22.3303H60.6574Z" fill="#575756"/>
<path id="Vector_5" d="M76.4017 12.7739H78.1553V27.3929H76.4017V12.7739ZM73.3371 12.7898H75.0237V27.3126H73.3371V19.7557H71.5183V18.1173H73.3371V12.7898ZM68.4193 12.871L72.5009 24.7713L70.9765 25.3931L68.4193 17.8877L65.8954 25.5064L64.3388 24.8872L68.4193 12.871Z" fill="#575756"/>
<path id="Vector_6" d="M92.8671 20.5557V17.7726H90.3106V16.2119H92.8671V12.7729H94.687V20.5557H92.8671ZM91.6553 24.261C91.6553 23.7148 91.4564 23.2452 91.0565 22.8533C90.658 22.4604 90.1788 22.2619 89.6229 22.2619C89.0766 22.2619 88.6063 22.4604 88.2133 22.8533C87.8208 23.2452 87.623 23.7148 87.623 24.261C87.623 24.8202 87.8208 25.2917 88.2133 25.6768C88.6063 26.0642 89.0766 26.259 89.6229 26.259C90.1788 26.259 90.658 26.0642 91.0565 25.6768C91.4564 25.2917 91.6553 24.8202 91.6553 24.261ZM93.4408 24.2769C93.444 24.7545 93.3411 25.2268 93.1397 25.6598C92.9408 26.0863 92.6651 26.4726 92.3264 26.7994C91.9784 27.1341 91.5696 27.3991 91.122 27.5801C90.6513 27.7719 90.1474 27.869 89.6392 27.866C89.1251 27.866 88.634 27.7704 88.1637 27.5801C87.693 27.3886 87.2897 27.1275 86.9512 26.7994C86.6126 26.4731 86.3377 26.0867 86.1405 25.6598C85.9368 25.2275 85.833 24.7548 85.8368 24.2769C85.8368 23.787 85.9372 23.3252 86.1405 22.8959C86.3375 22.4678 86.6124 22.08 86.9512 21.7523C87.2897 21.4264 87.693 21.166 88.1637 20.9757C88.634 20.7809 89.1251 20.6864 89.6392 20.6864C90.1639 20.6864 90.658 20.7809 91.122 20.9757C91.5692 21.1556 91.978 21.4192 92.3264 21.7523C92.6653 22.0805 92.9409 22.4681 93.1397 22.8959C93.3408 23.3284 93.4436 23.8 93.4408 24.2769ZM81.7723 15.5083V13.9858H85.1972V12.5929H87.1316V13.9858H90.3932V15.5083H86.8353L90.5243 19.2469L89.3436 20.3598L86.1635 17.0485L83.0174 20.6209L81.8049 19.4924L85.5087 15.5083H81.7723Z" fill="#575756"/>
</g>
</svg>
