<svg preserveAspectRatio="none" width="100%" height="100%" overflow="visible" style="display: block;" viewBox="0 0 41.2169 40.0003" fill="none" xmlns="http://www.w3.org/2000/svg">
<g id="Group">
<path id="Vector" d="M30.8843 19.0905C27.4115 16.7268 22.9586 17.6908 20.6232 21.2443C18.671 24.213 15.7265 24.58 14.5851 24.58C10.8702 24.58 8.3251 21.9663 7.57084 19.2599C7.56277 19.2316 7.55874 19.2115 7.55067 19.1832C7.5426 19.151 7.53454 19.1227 7.52647 19.0905C7.23203 17.9611 7.15942 17.4246 7.15942 16.2226C7.15942 9.75295 13.7985 2.54916 23.3579 2.54916C32.9172 2.54916 38.7496 10.003 40.1936 14.1454C40.1694 14.0728 40.1452 14.0002 40.121 13.9276C37.3419 5.82838 29.6582 0 20.6151 0C9.23263 0 0 9.2286 0 20.6151C0 30.7916 7.34093 39.5039 17.5214 39.5039C25.6408 39.5039 31.1021 34.9501 33.6029 28.678C34.9783 25.2455 34.0022 21.2121 30.8843 19.0945V19.0905Z" fill="#003763"/>
<path id="Vector_2" d="M40.3175 14.5491C39.1155 10.5075 33.4686 2.55353 23.3527 2.55353C13.7893 2.55353 7.15422 9.75732 7.15422 16.227C7.15422 17.425 7.22683 17.9654 7.52127 19.0948C7.39623 18.6027 7.3317 18.1066 7.3317 17.6226C7.3317 10.8867 14.0797 6.21593 21.0133 6.21593C30.4032 6.21593 38.0103 13.8271 38.0103 23.213C38.0103 30.5741 33.7752 36.943 27.6201 40.0003C35.5499 37.1325 41.217 29.5375 41.217 20.6154C41.217 18.5059 40.9346 16.6425 40.3094 14.5491H40.3175Z" fill="#E4022D"/>
</g>
</svg>
