<svg preserveAspectRatio="none" width="100%" height="100%" overflow="visible" style="display: block;" viewBox="0 0 24 24" fill="none" xmlns="http://www.w3.org/2000/svg">
<g id="iconoir:donate">
<path id="Vector" d="M18 5.08547C17.9998 6.03075 17.6429 6.93764 17.0071 7.60846C15.5432 9.15431 14.1228 10.7661 12.6034 12.2554C12.4338 12.4173 12.2113 12.5048 11.9819 12.4998C11.7524 12.4948 11.5336 12.3978 11.3705 12.2287L6.99384 7.61004C6.35727 6.93899 6 6.03143 6 5.08547C6 4.1395 6.35727 3.23194 6.99384 2.56089C7.31129 2.22593 7.6889 1.96008 8.10489 1.77867C8.52088 1.59725 8.96704 1.50385 9.41765 1.50385C9.86826 1.50385 10.3144 1.59725 10.7304 1.77867C11.1464 1.96008 11.524 2.22593 11.8415 2.56089L12.0005 2.72899L12.1594 2.56089C12.6359 2.0564 13.245 1.71183 13.9091 1.57106C14.5732 1.43028 15.2622 1.49967 15.8885 1.77039C16.5148 2.04111 17.0501 2.50092 17.4261 3.09127C17.8021 3.68162 18.0019 4.37581 18 5.08547Z" fill="var(--fill-0, white)"/>
<path id="Vector_2" fill-rule="evenodd" clip-rule="evenodd" d="M2.00143 10.0568V16.6732C2.00159 17.4157 2.30269 18.1278 2.83851 18.6528L5.96829 21.7202V22.5H10.7294V18.4764C10.7295 18.0682 10.6475 17.664 10.4882 17.2869C10.3289 16.9098 10.0953 16.5671 9.80087 16.2784L7.74673 14.2652L7.74102 14.2596C7.5148 14.0752 7.22471 13.9834 6.93117 14.0033C6.63762 14.0233 6.36324 14.1534 6.16515 14.3667C5.96707 14.58 5.86056 14.8599 5.86779 15.1482C5.87502 15.4365 5.99545 15.7109 6.20399 15.9144L7.51818 17.2024C7.58639 17.267 7.64081 17.3442 7.67824 17.4296C7.71567 17.515 7.73537 17.6069 7.7362 17.6998C7.73702 17.7928 7.71895 17.8849 7.68304 17.971C7.64713 18.057 7.59409 18.1352 7.52703 18.2009C7.45997 18.2666 7.38022 18.3186 7.29245 18.3538C7.20467 18.389 7.11062 18.4067 7.01578 18.4059C6.92095 18.4051 6.82723 18.3858 6.74009 18.3491C6.65295 18.3124 6.57414 18.2591 6.50825 18.1922L5.19406 16.9042C4.71596 16.4351 4.44575 15.8002 4.44201 15.1372C4.43826 14.4742 4.70128 13.8365 5.17406 13.3622V10.0554C5.17406 9.64288 5.00685 9.24726 4.70923 8.95557C4.4116 8.66387 4.00794 8.5 3.58703 8.5C3.16612 8.5 2.76246 8.66387 2.46483 8.95557C2.1672 9.24726 2 9.64288 2 10.0554L2.00143 10.0568ZM22 16.6732V10.0568C22 9.64428 21.8328 9.24866 21.5352 8.95697C21.2375 8.66527 20.8339 8.5014 20.413 8.5014C19.9921 8.5014 19.5884 8.66527 19.2908 8.95697C18.9931 9.24866 18.8259 9.64428 18.8259 10.0568V13.3622C19.2996 13.8366 19.5632 14.4749 19.5594 15.1386C19.5557 15.8023 19.2849 16.4378 18.8059 16.907L17.4918 18.1936C17.357 18.3211 17.1766 18.3917 16.9894 18.3901C16.8021 18.3885 16.6229 18.3149 16.4905 18.1851C16.3581 18.0553 16.283 17.8797 16.2814 17.6962C16.2797 17.5126 16.3517 17.3358 16.4818 17.2038L17.796 15.9158C18.0082 15.713 18.1317 15.4373 18.1404 15.147C18.1491 14.8567 18.0424 14.5744 17.8428 14.3597C17.6432 14.145 17.3663 14.0147 17.0705 13.9962C16.7748 13.9778 16.4833 14.0728 16.2576 14.261L16.2518 14.2666L14.2006 16.277C13.9059 16.5658 13.6723 16.9087 13.513 17.2861C13.3536 17.6635 13.2718 18.068 13.2721 18.4764V22.5H18.0317V21.7216L21.1615 18.6528C21.4271 18.393 21.6378 18.0844 21.7817 17.7447C21.9255 17.4051 21.9997 17.041 22 16.6732Z" fill="var(--fill-0, white)"/>
</g>
</svg>
