<svg preserveAspectRatio="none" width="100%" height="100%" overflow="visible" style="display: block;" viewBox="0 0 28 28" fill="none" xmlns="http://www.w3.org/2000/svg">
<g id="Group 20">
<path id="Vector 47" d="M24.2667 22.4C24.2667 22.4 21.9852 19.6 14.2281 19.6C6.47111 19.6 3.73333 22.4 3.73333 22.4" stroke="var(--stroke-0, white)" stroke-width="1.5"/>
<path id="Vector 50" d="M3.73334 5.6C3.73334 5.6 6.01482 8.4 13.7719 8.4C21.5289 8.4 24.2667 5.6 24.2667 5.6" stroke="var(--stroke-0, white)" stroke-width="1.5"/>
<path id="Vector 48" d="M17.7333 26.6C17.7333 26.6 21.4667 23.9 21.4667 14.28C21.4667 4.66 17.7333 1.4 17.7333 1.4" stroke="var(--stroke-0, white)" stroke-width="1.5"/>
<path id="Vector 49" d="M10.2667 1.4C10.2667 1.4 6.53333 4.1 6.53333 13.72C6.53333 23.34 10.2667 26.6 10.2667 26.6" stroke="var(--stroke-0, white)" stroke-width="1.5"/>
<circle id="Ellipse 23" cx="14" cy="14" r="13.25" stroke="var(--stroke-0, white)" stroke-width="1.5"/>
<path id="Vector 44" d="M14 0V27.5333" stroke="var(--stroke-0, white)" stroke-width="1.5"/>
<path id="Vector 45" d="M28 14L0.466667 14" stroke="var(--stroke-0, white)" stroke-width="1.5"/>
</g>
</svg>
