<svg preserveAspectRatio="none" width="100%" height="100%" overflow="visible" style="display: block;" viewBox="0 0 24 24" fill="none" xmlns="http://www.w3.org/2000/svg">
<g id="clarity:store-solid" clip-path="url(#clip0_0_9)">
<g id="Vector">
</g>
<g id="Group 32">
<path id="Vector_2" d="M21.8687 7.74595L19.3187 2.68803C19.2153 2.48149 19.0557 2.30767 18.8581 2.18613C18.6605 2.06458 18.4325 2.00012 18.2 2H5.80001C5.56745 2.00012 5.33955 2.06458 5.14191 2.18613C4.94427 2.30767 4.78474 2.48149 4.68126 2.68803L2.13126 7.74595C2.04419 7.91919 1.99924 8.11024 2.00001 8.30381V10.2129C1.99944 10.5026 2.10116 10.7833 2.28751 11.0063C2.56292 11.3194 2.90307 11.5701 3.28484 11.7412C3.66661 11.9123 4.08106 11.9999 4.50001 11.9981C5.18361 11.9991 5.84637 11.7647 6.37501 11.3348C6.90364 11.7649 7.56625 12 8.25 12C8.93376 12 9.59637 11.7649 10.125 11.3348C10.6536 11.7649 11.3162 12 12 12C12.6838 12 13.3464 11.7649 13.875 11.3348C14.4036 11.7649 15.0662 12 15.75 12C16.4338 12 17.0964 11.7649 17.625 11.3348C18.2151 11.8154 18.9701 12.0503 19.7312 11.9902C20.4923 11.93 21.2003 11.5796 21.7062 11.0125C21.8948 10.7904 21.9988 10.5096 22 10.2191V8.30381C22.0008 8.11024 21.9558 7.91919 21.8687 7.74595ZM10.125 8.44637V9.38854L9.6125 10.058C9.45518 10.2706 9.24956 10.4436 9.01231 10.5628C8.77506 10.682 8.51284 10.7441 8.24688 10.7441C7.98092 10.7441 7.7187 10.682 7.48145 10.5628C7.2442 10.4436 7.03858 10.2706 6.88126 10.058L6.37501 9.36374V8.44637L7.99375 3.23969H10.75L10.125 8.44637ZM17.625 9.36374L17.1187 10.058C16.9614 10.2706 16.7558 10.4436 16.5186 10.5628C16.2813 10.682 16.0191 10.7441 15.7531 10.7441C15.4872 10.7441 15.2249 10.682 14.9877 10.5628C14.7504 10.4436 14.5448 10.2706 14.3875 10.058L13.875 9.36374V8.44637L13.25 3.23969H16.0312L17.625 8.44637V9.36374Z" fill="var(--fill-0, white)"/>
<path id="Subtract" d="M20 20.9238C20 21.189 19.906 21.4433 19.7393 21.6309C19.5726 21.8183 19.347 21.9238 19.1113 21.9238H18.333C18.0974 21.9237 17.8717 21.8183 17.7051 21.6309C17.5384 21.4433 17.4443 21.189 17.4443 20.9238V14.9238H12.8887V20.9238C12.8887 21.1889 12.7954 21.4434 12.6289 21.6309C12.4622 21.8184 12.2357 21.9238 12 21.9238H4.88867C4.65303 21.9238 4.42739 21.8183 4.26074 21.6309C4.09404 21.4433 4 21.189 4 20.9238V11L20 10.999V20.9238ZM6.66699 14.9238V17.9238H10.2227V14.9238H6.66699Z" fill="var(--fill-0, white)"/>
</g>
</g>
<defs>
<clipPath id="clip0_0_9">
<rect width="24" height="24" fill="white"/>
</clipPath>
</defs>
</svg>
