<svg width="100%" height="100%" overflow="visible" style="display: block;" viewBox="0 0 314.557 167.475" fill="none" xmlns="http://www.w3.org/2000/svg">
<path id="Union" d="M130.99 105.672C136.449 107.322 130.32 113.122 128.919 115.923C127.894 117.973 131.968 120.663 131.102 122.198C129.379 122.888 127.791 120 127.127 118.7C124.504 123.965 120.15 129.934 116.87 134.875C110.275 144.809 103.381 155.097 94.8076 163.432C93.1314 165.061 91.6264 166.061 89.5976 167.207C87.4816 167.802 84.8202 167.528 84.1904 165.117C82.6758 159.317 86.3843 151.265 88.747 146.104C93.2907 136.178 98.908 126.482 106.84 118.902C109.64 116.241 111.498 114.425 115.276 113.078C117.517 112.279 120.06 112.095 122.4 112.658C122.824 112.76 124.919 113.782 125.447 114.032L125.625 113.956C126.114 113.137 126.048 112.087 126.288 111.349C126.817 109.72 129.578 106.51 130.99 105.672ZM126.723 48.9629C129.542 47.9479 131.774 51.2 131.259 53.7744C130.245 58.3283 126.121 61.0355 121.832 62.0742C120.226 62.4632 118.388 62.6012 116.968 63.3789C115.947 64.0471 116.17 66.6958 116.455 67.6895C117.869 68.6641 119.007 68.8261 120.832 68.4238C125.529 67.3628 131.088 65.1299 134.286 61.4014C134.862 60.6862 135.975 57.9947 136.33 57.4756C136.855 56.6753 140.463 51.5049 141.324 51.7988C145.718 53.3025 142.316 56.0432 141.045 58.1025C139.55 60.5231 137.372 63.3701 137.473 66.1436C138.255 66.1088 139.45 66.1109 140.134 65.7578C145.21 63.1366 149.04 57.884 152.348 53.3604C152.688 52.8954 153.137 52.5985 153.612 52.3086C154.822 53.0849 155.109 53.2144 155.749 54.5264C155.233 56.0104 154.174 57.8273 153.407 59.2559C150.551 64.5798 147.778 70.0784 144.472 75.125C144.289 75.4039 144.35 75.5994 144.412 75.8857C148.565 75.4563 152.734 75.2013 156.907 75.1211C161.335 75.0279 177.332 75.2863 182.423 76.5713C182.726 76.6487 183.461 77.9053 183.522 78.6787C183.25 79.4249 182.872 79.4312 182.076 79.3457C171.344 78.1922 160.546 77.714 149.778 78.6523C147.147 78.8816 144.434 79.4646 141.892 79.6572C141.046 81.3647 139.291 84.1777 138.24 85.8174C139.397 85.8125 140.351 86.1441 141.461 86.4316C153.105 89.4489 161.695 99.004 161.848 111.291C161.928 117.654 158.868 123.515 154.302 127.798C153.082 128.943 151.706 130.357 150.262 131.301C142.601 136.309 132.956 138.784 123.857 138.912C123.332 138.919 122.697 138.824 122.194 138.738C123.387 140.373 126.258 142.307 127.936 143.546C135.168 148.888 143.225 152.539 151.454 156.017C156.829 158.289 161.841 160.302 167.452 161.933C169.813 162.619 173.217 163.236 173.807 165.954L173.707 166.334C172.114 166.932 152.081 159.178 148.875 157.626C144.724 155.615 138.743 152.989 134.792 150.598C131.562 148.643 117.544 139.735 118.311 135.88C118.763 135.551 120.124 135.7 120.769 135.707C134.664 135.866 149.339 129.019 155.573 116.152C158.91 109.262 158.826 102.975 154.225 96.6885C150.236 91.2404 143.014 88.9971 136.719 87.584C135.587 90.1851 130.644 97.1372 128.104 97.9609C124.216 99.2224 118.553 95.792 117.188 91.9844C116.275 89.4362 117.198 88.144 116.89 87.1758C114.012 87.0792 106.812 88.3066 103.891 88.9492C86.1424 92.8528 64.4088 98.3272 57.167 117.2C56.4235 119.135 56.6553 122.556 56.6201 124.655C58.6162 128.348 59.1337 129.702 63.0371 132.098C64.0538 132.722 64.7413 133.289 65.9892 133.664C66.4975 134.36 67.8889 135.789 66.8847 136.413C64.4764 136.405 58.4893 131.924 56.9912 130.123C49.3811 120.859 52.844 108.713 60.8291 100.964C67.1379 94.8411 73.3445 92.6846 81.4551 89.9316C93.9229 85.6995 106.563 84.1544 119.677 83.7432C120.035 83.4651 120.429 83.1765 120.77 82.8799C125.937 78.3861 132.984 77.9287 139.282 76.1787C141.32 73.724 142.511 70.6586 144.216 68.0449C144.468 67.7863 145.307 66.3289 145.544 65.9346C144.887 66.4432 144.457 66.7596 143.886 67.3779C142.539 68.5617 140.571 69.4465 138.871 69.9893C136.445 69.3011 134.898 68.6946 133.853 66.2451C129.702 69.8539 119.976 74.9354 115.344 69.5547C108.607 61.7287 119.696 51.4929 126.723 48.9629ZM124.254 115.956C122.828 115.725 121.405 115.368 119.981 115.563C117.468 116.258 115.848 116.796 113.773 118.443C102.575 127.335 95.2247 140.766 89.7177 153.733C88.2747 157.131 87.3404 160.823 86.5058 164.414C87.9563 163.772 88.2072 163.678 89.4082 162.59C94.9377 158.451 101.376 149.708 105.494 144.018C112.05 134.869 118.307 125.511 124.254 115.956ZM231.136 97.3896C231.505 97.4016 231.956 97.4227 232.263 97.6475C234.839 99.5339 233.472 100.857 232.143 102.827C228.47 108.269 224.582 113.553 220.929 118.994C223.191 118.764 227.542 118.868 229.92 118.879C234.102 118.898 238.705 118.771 242.854 118.938C243.835 119.523 245.122 120.388 244.878 121.674C244.195 122.307 242.378 122.159 241.414 122.126C233.95 121.874 226.28 122.354 218.844 122.119C216.64 125.701 206.154 141.412 206.187 144.702C206.192 145.188 206.346 145.376 206.674 145.696C206.915 145.769 207.157 145.828 207.411 145.811C209.369 145.674 218.534 139.598 220.05 137.969C221.721 136.172 222.79 133.808 224.386 131.915C226.52 129.385 231.062 125.56 234.505 125.305C235.945 125.198 236.723 125.647 237.783 126.566C238.068 127.293 238.365 128.077 238.43 128.859C238.57 130.575 237.924 132.177 236.874 133.511C232.885 138.583 224.531 139.059 223.899 139.888C223.344 140.617 223.227 142.316 223.347 143.217C223.459 144.06 224.033 144.423 224.669 144.891C230.68 145.125 235.89 142.041 240.803 138.893C242.305 137.93 244.308 134.514 246.039 135.822C246.337 136.047 246.523 136.39 246.548 136.763C246.595 137.491 246.088 138.139 245.639 138.661C241.508 143.459 229.101 151.678 223.133 146.59C221.692 145.38 220.799 143.644 220.651 141.77C217.562 144.522 213.692 147.31 210.02 148.976C207.537 150.101 203.48 150.952 202.426 147.702C201.915 146.124 202.547 145.131 203.147 143.751C200.928 145.692 199.184 146.427 196.189 145.893C196.031 145.86 195.872 145.821 195.717 145.774C194.424 145.394 193.894 144.168 193.277 143.027C193.078 142.977 192.477 143.443 192.267 143.609C190.087 145.334 182.687 149.672 181.371 144.985C180.882 143.241 181.258 141.139 182.155 139.51C180.547 139.613 179.157 139.594 177.565 139.371C175.845 143.953 171.929 152.289 165.831 149.649C161.208 147.648 162.435 140.388 164.289 136.872C165.674 134.246 166.342 132.421 169.267 131.378C169.859 131.786 170.371 132.273 170.905 132.755C170.3 130.747 169.162 125.722 173.164 126.572C176.911 127.369 178.683 133.221 177.912 136.631C178.998 136.714 182.075 137.143 182.888 136.2C184.599 134.213 185.955 131.87 187.734 129.88C188.759 128.734 189.653 127.53 191.18 128.925C192.814 130.473 191.705 131.819 190.623 133.261C188.031 136.715 185.509 139.904 185.504 144.418C191.974 142.264 193.872 136.451 198.239 132.496C199.226 132.904 200.327 133.281 200.65 134.413C201.131 136.097 194.506 142.752 196.571 143.978C198.278 144.08 201.871 141.212 203.187 140.152C205.612 138.203 207.032 134.347 208.51 131.678C209.636 129.646 213.113 126.63 209.64 124.744C204.101 121.738 196.81 122.275 190.68 121.991C189.078 121.917 187.896 121.664 187.377 120.029C187.26 119.662 187.431 119.489 187.622 119.232C188.683 118.628 191.882 118.878 193.226 118.88L202.512 118.878L211.096 118.863C212.849 118.86 214.959 118.794 216.68 118.963C217.498 116.185 229.041 99.8825 231.136 97.3896ZM171.455 133.944C170.955 134.923 170.114 135.271 169.483 136.147C167.301 139.174 165.305 143.234 165.59 147.054C166.581 146.87 167.073 146.789 168.021 146.37C170.313 144.303 171.646 143.048 173.095 140.211C173.492 139.436 173.932 138.384 174.321 137.68C173.942 137.245 171.45 133.955 171.455 133.944ZM234.606 128.989C231.735 131.126 230.071 132.257 227.422 134.779L227.392 134.996L227.701 134.978C230.348 134.099 232.155 132.809 233.94 130.656C234.254 130.277 234.882 129.62 235.012 129.172C234.835 129.044 234.817 128.994 234.606 128.989ZM204.205 121.522C205.048 121.905 205.439 122.086 206.351 122.328C208.268 123.01 210.845 124.251 212.244 125.728C212.934 124.551 213.688 123.012 214.684 122.15C212.777 121.925 209.51 121.661 207.609 121.767C206.317 121.608 205.505 121.538 204.205 121.522ZM237.193 25.9834C238.009 26.2848 239.518 27.9611 239.108 28.793C237.366 32.3449 234.799 35.4853 232.765 38.875C225.185 51.3199 217.246 63.5466 209.811 76.0781C206.46 81.6035 203.258 87.2182 200.211 92.916C199.366 94.513 198.524 96.058 198.273 97.8691C198.216 98.2818 198.161 98.6452 197.895 98.9775C197.505 99.0428 197.313 98.9361 196.998 98.708C196.412 98.2824 195.508 97.5247 195.406 96.7676C195.084 94.3374 202.816 80.3443 204.515 77.4277C205.79 75.235 207.234 73.1443 208.518 70.958C209.835 68.7162 211.051 66.4309 212.411 64.21C213.211 63.2681 216.03 58.6753 216.822 57.416C215.509 58.5027 214.31 60.0616 213.199 61.3525C212.57 62.0834 212.262 62.8356 211.445 63.3936C206.947 65.9554 201.572 73.2267 195.925 70.1357C195.409 69.2331 195.054 68.7469 195.059 67.7061L195.06 67.3135C194.756 67.1873 194.13 67.8737 193.781 68.0811C193.226 68.52 192.444 68.6365 191.86 68.9316C189.549 70.0994 186.478 68.715 185.733 66.2021C184.904 63.3984 187.411 59.7812 188.715 57.3232C187.2 58.1942 185.534 59.6217 184.152 60.7432C181.751 62.6941 179.384 64.687 177.053 66.7207C176.092 67.5619 172.78 70.8822 171.835 71.2061C171.044 71.2052 169.725 70.1915 169.636 69.5518C169.365 67.6246 171.506 64.7414 172.468 63.2051C170.649 63.2734 169.873 63.2495 168.109 62.8193C167.197 66.3551 165.04 70.4817 161.983 72.624C157.52 75.7345 152.706 72.1122 153.121 66.9932C153.441 63.0549 155.306 58.5806 158.196 55.8135C159.798 54.2804 160.789 55.6699 161.767 56.8818C161.385 55.9132 160.919 54.6291 160.815 53.626C160.442 49.9916 163.572 49.2101 165.951 51.5029C168.725 54.1771 168.534 57.0749 168.609 60.543C170.212 60.5668 171.755 60.4945 173.354 60.4277C174.73 58.5962 177.439 52.0814 179.589 55.4014C180.411 56.6708 180.225 57.2962 179.382 58.4053C178.932 59.2482 178.476 60.0883 178.015 60.9248C178.913 60.2196 179.464 59.7198 180.286 58.9229C182.572 56.2035 186.761 53.3065 190.461 54.0596C191.389 54.7765 191.742 55.1262 192.299 56.1631C191.794 61.7902 189.438 62.7147 188.271 66.8652C191.502 65.9753 193.835 64.7685 196.239 62.4111C199.216 59.4929 200.704 54.8064 205.73 55.0527C209.172 55.098 208.704 55.5305 211.259 57.5928C211.716 57.2377 213.568 54.8141 214.31 54.042C219.992 48.0704 225.249 41.7105 230.048 35.0098C231.956 32.3746 233.657 29.6745 235.466 26.9795C235.838 26.4246 236.487 25.9445 237.193 25.9834ZM132.96 87.1074C129.016 86.7448 126.061 86.738 122.087 86.8086C118.234 90.7711 119.598 95.2075 125.503 95.2461C126.402 94.2499 127.046 93.6789 128.098 92.8242C129.659 91.0147 131.397 88.8403 132.96 87.1074ZM75.9658 0C77.5631 0.663587 79.433 0.283094 81.0605 0.588867C90.048 2.27732 99.7699 4.63357 106.302 11.4971C108.255 13.5494 108.809 13.9055 110.063 16.4883C115.125 26.9101 108.212 35.0308 99.3291 40.0088C97.7687 40.8806 96.2093 41.4894 94.6133 42.2334C102.467 45.076 109.766 50.8896 109.577 60.0264C109.417 67.772 101.63 74.0525 95.4482 77.5674C80.9404 85.8162 63.61 89.034 47.0322 88.4297C37.6736 88.0861 25.3384 86.3439 18.2256 79.626C16.0694 77.4275 15.2374 74.7681 15.2129 71.7646C15.0343 65.5735 21.5261 58.7865 26.4873 55.9121C34.0945 51.5048 44.6181 49.0952 53.2607 51.2266C53.634 51.3187 56.2506 52.1234 56.3603 52.0254C57.8577 50.6736 58.4244 48.0364 59.9531 46.5889C59.2123 46.3252 58.1439 45.9542 57.4785 45.5469C50.0232 40.9823 61.2515 39.4355 64.2549 38.8828C65.2438 36.8799 67.9338 32.7081 69.2812 31.0156C68.9026 30.3808 68.4969 29.4998 68.1611 28.8223C68.3113 28.4775 68.4752 28.1385 68.6523 27.8066C69.3248 26.5634 73.9507 21.4247 75.2236 21.1299C75.6807 21.0239 76.1291 21.1884 76.5 21.4512C77.0565 21.8454 77.5879 22.5619 77.6699 23.2539C77.85 24.7748 70.2906 36.8774 68.9004 38.6592C73.8631 38.2509 80.4707 38.5794 85.2734 39.6953C86.5932 40.0019 87.737 40.0315 89.0136 40.5977C91.0605 39.9201 98.9608 35.3618 100.826 33.9131C103.957 31.4817 108.228 26.9549 108.612 22.7549C108.906 19.5425 108.269 17.2925 106.277 14.7432C100.17 6.92689 88.6439 4.63465 79.3467 3.34766C74.7395 2.70996 68.9464 3.26691 64.3447 3.94434C46.7653 6.53215 28.6095 15.4815 16.1904 28.2715C13.0282 31.5282 9.69342 36.3586 7.32907 40.2734C6.39312 41.8232 5.69313 44.1368 4.99997 45.7354C4.37567 47.1751 2.95558 53.6653 2.25778 54.2158C1.65179 54.1382 0.901934 53.5771 0.360324 53.2314C0.298265 53.0924 0.00994084 52.4098 0.00192513 52.2793C-0.0927573 46.5628 3.32259 38.5755 6.37985 33.8867C12.2662 24.8591 21.1273 16.9338 30.6103 11.8564C32.3258 10.9379 33.9169 9.78275 35.6308 8.96387C44.2867 4.82848 53.5647 1.90181 63.0859 0.643555C65.0847 0.380676 67.0326 0.540715 69.0595 0.0410156L69.2226 0H75.9658ZM90.7959 43.7129C84.3218 46.1286 75.1433 47.4836 68.2802 47.4053C66.889 47.3894 65.0438 47.4581 63.708 47.2383C62.6085 49.6069 61.226 51.5056 60.2431 53.5459C61.7097 54.4436 63.4829 55.1962 64.8183 56.2578C68.7549 59.3876 71.8393 63.0907 74.4677 67.3555C74.8763 68.0183 75.2377 69.0079 74.3203 69.3574C72.396 68.8874 70.1914 64.8162 68.9101 63.2842C67.9622 62.1511 67.1359 61.3847 66.0937 60.3779C63.7018 58.0672 61.7856 57.0092 58.8955 55.5205C57.3662 58.0416 55.796 61.26 54.0888 63.6748C53.9491 63.8727 53.6042 63.9898 53.3652 64.0518C52.4517 64.0501 50.8832 62.6449 51.0683 61.9326C51.574 59.9868 53.9619 55.8163 55.1836 54.3633C53.9463 54.2337 52.8149 53.9247 51.6064 53.7881C42.7594 52.7882 32.9427 56.0376 26.1328 61.5488C25.3348 62.2065 24.5508 62.8817 23.7822 63.5732C20.9099 66.8155 18.204 70.0001 18.3154 74.584C18.4184 78.8161 24.7097 81.4587 27.9551 82.5049C37.1095 85.4559 46.8759 85.9265 56.3994 85.1221C63.4983 84.5828 69.764 83.2187 76.6045 81.3379C80.5717 80.5251 83.3864 78.9826 86.9218 77.2871C92.9996 74.3725 97.8919 71.6854 102.424 66.5332C107.728 60.503 107.827 54.0025 101.777 48.5537C99.9189 46.8798 93.0408 43.5247 90.7959 43.7129ZM136.356 80.5068C132.099 81.7984 130.132 82.2126 125.922 84.1328L128.09 84.2383C134.834 84.2684 133.269 86.7315 136.957 80.5244L136.856 80.4121L136.356 80.5068ZM276.098 21.125C277.161 20.9941 278.423 22.411 278.54 23.4209C278.589 23.8445 277.957 24.9667 277.674 25.3594C273.994 30.4579 270.489 35.6614 266.946 40.8555C266.603 41.3588 266.254 41.875 265.855 42.335C265.783 42.4176 265.709 42.4994 265.634 42.5791C269.194 42.2257 273.048 42.5221 276.637 42.4062C277.266 42.3859 277.946 42.4051 278.574 42.4463C279.513 40.4569 286.452 28.1833 287.852 27.6455C288.207 27.5092 288.554 27.5449 288.895 27.708C289.542 28.0162 290.049 28.6861 290.27 29.3555C290.545 30.1936 290.247 30.7766 289.862 31.5049C288.73 33.6505 284.08 41.1809 282.653 42.5361C285.234 42.3775 289.166 41.6621 289.636 45.0654C289.643 45.1209 289.608 45.2921 289.591 45.3545C288.832 45.9504 282.166 45.7412 280.943 45.6309C278.53 50.2765 274.639 56.2481 271.619 60.5898C273.642 59.0582 279.13 54.5103 281.126 58.3594C282.096 60.2273 281.855 64.735 281.848 66.917C283.925 66.1706 288.351 63.2814 289.117 61.0908C290.858 56.1175 294.979 52.8853 299.311 50.1973C300.375 49.5428 302.023 48.6213 303.33 48.8076C306.831 49.3072 307.263 53.1648 305.849 55.8086C303.325 60.527 297.208 62.7553 292.089 63.0752C291.418 65.7364 290.574 66.7364 293.019 68.5762C299.006 68.8219 306.591 64.796 310.909 60.8213C311.817 59.9853 313.105 58.7576 314.362 59.9023C314.515 60.2515 314.669 60.6994 314.444 61.0791C312.122 64.9947 306.053 68.868 302.066 70.5303C299.284 71.6908 295.669 72.5001 293.031 71.377C290.392 70.253 289.531 68.1365 288.569 65.793C287.061 67.2532 283.585 69.3952 281.391 69.3418C280.58 69.3221 280.139 69.0456 279.437 68.665C277.795 65.8185 277.7 62.3972 278.053 59.1768C273.137 62.6213 269.465 67.4669 265.28 71.6992C263.203 73.801 262.363 72.6116 261.287 70.5049C261.675 69.499 261.812 69.2229 262.452 68.3623C262.674 68.1863 263.363 66.986 263.556 66.6699C263.073 67.0412 262.582 67.4722 262.114 67.8691C258.793 70.7007 254.777 73.548 250.206 73.4346C248.076 73.3809 246.7 71.8584 247.091 69.7178C247.965 64.9349 250.636 60.559 252.736 56.2344C253.074 55.1756 256.55 50.8632 255.721 49.7949C253.061 46.376 248.001 46.5155 244.148 45.8643C240.829 45.3028 235.614 46.3761 232.747 44.9355C232.425 44.351 232 43.6983 231.925 43.0488L232.04 42.6826C233.03 42.2787 258.75 42.2491 261.315 42.4639C262.317 40.3015 274.539 21.9363 276.098 21.125ZM162.09 57.833C159.198 60.0583 156.437 65.5057 155.998 69.1465C155.929 69.7161 155.883 70.1177 156.225 70.6064C156.955 70.9441 157.637 70.6364 158.32 70.2422C161.702 67.9947 163.218 64.9494 164.945 61.3076C164.577 60.9264 162.119 57.8487 162.09 57.833ZM263.52 45.624C261.794 48.7237 259.807 51.7517 258.013 54.8115C256.747 56.9683 248.957 68.0578 251.311 69.8945C254.375 69.3707 263.229 62.929 266.101 60.7441C269.593 58.0885 273.236 49.4376 276.519 45.8447L276.478 45.6426L276.303 45.6357C274.059 45.7791 271.196 45.6685 268.907 45.6855C267.588 45.6954 264.735 45.7508 263.52 45.624ZM208.905 59.6865C208.87 58.2728 206.983 58.5712 205.958 58.6436C201.581 61.4562 200.273 63.9995 198.072 68.2822C198.699 67.7768 199.817 66.8284 200.454 66.4512C201.334 65.9336 208.54 60.2296 208.905 59.6865ZM127.709 52.6094C125.677 53.6099 121.964 56.8954 120.36 58.4619L120.321 58.6797L120.403 58.7627C123.328 57.5143 125.997 56.0128 127.847 53.0654C127.913 52.9598 127.855 52.8748 127.814 52.7021L127.709 52.6094ZM302.929 52.623C301.186 53.6657 296.91 56.9995 295.551 58.4785L295.496 58.7002L295.581 58.7393C297.399 58.1775 303.261 54.6291 302.988 52.6875L302.929 52.623ZM164.499 53.2734C163.115 54.7457 163.941 56.9994 164.989 58.4424L165.345 58.4512C165.713 57.4905 165.206 54.6633 164.931 53.5879C164.758 53.4012 164.743 53.346 164.499 53.2734ZM249.075 45.1504C249.891 45.5446 250.254 45.7427 251.157 45.9443C251.66 46.2671 252.409 46.5244 252.977 46.7881C254.643 47.5616 255.805 48.1953 257.148 49.4316C257.667 48.3383 258.268 46.8501 259.146 46.0625C259.336 45.8927 259.258 45.983 259.33 45.7021C258.678 45.5463 253.356 45.4145 252.647 45.5371C251.759 45.2776 250.029 45.1839 249.075 45.1504ZM83.6269 42.1123C80.2662 41.8165 73.1298 41.6281 69.8545 41.9287C66.9453 42.0207 61.0023 42.7358 58.3291 43.8916C61.4789 44.361 68.9497 44.5302 71.9863 44.0576C76.3936 43.6385 79.3308 43.2241 83.6269 42.1123Z" fill="var(--fill-0, #0AC200)"/>
</svg>
