<svg preserveAspectRatio="none" width="100%" height="100%" overflow="visible" style="display: block;" viewBox="0 0 764.069 406.801" fill="none" xmlns="http://www.w3.org/2000/svg">
<path id="Union" d="M318.18 256.681C331.439 260.689 316.552 274.777 313.149 281.579C310.658 286.559 320.555 293.095 318.449 296.824C314.266 298.5 310.41 291.483 308.796 288.326C302.425 301.114 291.85 315.613 283.882 327.615C267.861 351.745 251.115 376.735 230.291 396.979C226.219 400.937 222.563 403.366 217.636 406.15C212.496 407.597 206.031 406.931 204.501 401.075C200.821 386.986 209.831 367.428 215.57 354.89C226.607 330.779 240.25 307.228 259.516 288.816C266.318 282.351 270.831 277.942 280.011 274.669C285.453 272.729 291.629 272.284 297.314 273.651C298.342 273.899 303.434 276.381 304.716 276.988L305.146 276.802C306.334 274.813 306.175 272.261 306.758 270.468C308.043 266.512 314.749 258.717 318.18 256.681ZM307.813 118.934C314.662 116.468 320.082 124.366 318.831 130.619C316.37 141.681 306.35 148.256 295.932 150.779C292.031 151.724 287.568 152.059 284.118 153.948C281.637 155.571 282.179 162.007 282.872 164.421C286.305 166.788 289.071 167.182 293.505 166.205C304.914 163.628 318.414 158.202 326.183 149.146C327.583 147.409 330.289 140.873 331.15 139.611C332.424 137.668 341.189 125.104 343.281 125.82C353.953 129.473 345.688 136.13 342.6 141.132C338.97 147.011 333.68 153.927 333.925 160.664C335.824 160.58 338.727 160.585 340.388 159.728C352.718 153.361 362.02 140.602 370.055 129.614C370.882 128.485 371.975 127.763 373.129 127.059C376.067 128.944 376.762 129.259 378.317 132.445C377.065 136.05 374.493 140.463 372.631 143.934C365.694 156.866 358.956 170.223 350.925 182.481C350.481 183.159 350.63 183.633 350.781 184.329C360.868 183.286 370.995 182.666 381.133 182.472C391.888 182.245 430.742 182.873 443.109 185.994C443.846 186.18 445.632 189.234 445.782 191.113C445.12 192.926 444.2 192.941 442.267 192.733C416.199 189.932 389.971 188.77 363.816 191.049C357.425 191.606 350.834 193.023 344.657 193.491C342.603 197.639 338.34 204.471 335.788 208.453C338.599 208.441 340.915 209.248 343.611 209.946C371.894 217.275 392.763 240.484 393.134 270.33C393.328 285.785 385.895 300.022 374.804 310.426C371.84 313.207 368.496 316.64 364.989 318.934C346.381 331.099 322.953 337.111 300.852 337.421C299.576 337.438 298.034 337.206 296.812 336.999C299.709 340.97 306.684 345.668 310.759 348.678C328.326 361.655 347.897 370.522 367.887 378.97C380.942 384.49 393.115 389.377 406.745 393.339C412.48 395.006 420.749 396.505 422.18 403.108L421.938 404.031C418.069 405.485 369.41 386.65 361.622 382.879C351.539 377.994 337.009 371.615 327.412 365.807C319.566 361.058 285.517 339.422 287.382 330.057C288.477 329.257 291.784 329.618 293.349 329.636C327.101 330.021 362.749 313.391 377.891 282.137C385.996 265.401 385.795 250.13 374.617 234.86C364.93 221.626 347.385 216.176 332.095 212.743C329.346 219.06 317.338 235.948 311.169 237.949C301.723 241.013 287.968 232.682 284.653 223.434C282.435 217.244 284.679 214.104 283.929 211.752C276.939 211.517 259.449 214.5 252.352 216.062C209.242 225.544 156.452 238.84 138.861 284.683C137.055 289.381 137.617 297.692 137.531 302.791C142.38 311.761 143.636 315.05 153.117 320.869C155.587 322.385 157.257 323.761 160.289 324.673C161.523 326.364 164.905 329.836 162.465 331.353C156.615 331.332 142.072 320.447 138.433 316.073C119.948 293.569 128.359 264.068 147.755 245.244C163.079 230.372 178.155 225.133 197.856 218.446C228.141 208.166 258.843 204.413 290.697 203.414C291.567 202.739 292.525 202.039 293.353 201.318C305.904 190.402 323.022 189.292 338.321 185.041C343.27 179.078 346.164 171.631 350.304 165.282C350.916 164.654 352.954 161.116 353.53 160.158C351.934 161.394 350.89 162.16 349.501 163.662C346.23 166.537 341.451 168.686 337.322 170.005C331.429 168.333 327.673 166.862 325.135 160.912C315.051 169.678 291.425 182.021 280.174 168.951C263.809 149.941 290.745 125.079 307.813 118.934ZM301.816 281.66C298.353 281.098 294.897 280.233 291.439 280.708C285.334 282.395 281.399 283.703 276.36 287.703C249.16 309.3 231.303 341.924 217.927 373.422C214.421 381.675 212.153 390.645 210.126 399.367C213.649 397.809 214.258 397.578 217.175 394.936C230.606 384.883 246.244 363.647 256.248 349.824C272.172 327.603 287.37 304.869 301.816 281.66ZM561.435 236.562C562.333 236.592 563.428 236.644 564.172 237.189C570.43 241.772 567.111 244.984 563.881 249.77C554.961 262.987 545.517 275.823 536.642 289.041C542.138 288.481 552.706 288.734 558.482 288.761C568.64 288.808 579.821 288.499 589.9 288.902C592.282 290.324 595.411 292.427 594.816 295.551C593.156 297.09 588.741 296.728 586.401 296.648C568.27 296.036 549.64 297.202 531.576 296.631C526.222 305.332 500.753 343.494 500.835 351.485C500.846 352.665 501.22 353.123 502.016 353.901C502.603 354.078 503.191 354.222 503.807 354.179C508.563 353.846 530.829 339.086 534.508 335.129C538.567 330.764 541.162 325.022 545.039 320.425C550.224 314.279 561.256 304.987 569.619 304.368C573.118 304.109 575.006 305.202 577.582 307.435C578.273 309.199 578.995 311.103 579.152 313.003C579.492 317.171 577.922 321.06 575.373 324.301C565.683 336.622 545.39 337.778 543.857 339.792C542.508 341.564 542.224 345.692 542.515 347.879C542.788 349.927 544.182 350.807 545.726 351.943C560.329 352.514 572.984 345.023 584.917 337.374C588.565 335.035 593.429 326.739 597.635 329.916C598.36 330.462 598.813 331.295 598.873 332.2C598.989 333.969 597.754 335.545 596.663 336.812C586.629 348.467 556.494 368.429 541.996 356.071C538.497 353.133 536.328 348.915 535.97 344.362C528.466 351.048 519.063 357.82 510.143 361.866C504.113 364.6 494.259 366.668 491.698 358.772C490.457 354.94 491.994 352.527 493.452 349.176C488.061 353.892 483.825 355.676 476.55 354.378C476.165 354.299 475.78 354.203 475.402 354.091C472.262 353.168 470.975 350.189 469.476 347.418C468.994 347.294 467.532 348.428 467.02 348.831C461.726 353.02 443.753 363.558 440.556 352.173C439.368 347.937 440.279 342.83 442.459 338.874C438.552 339.124 435.177 339.08 431.311 338.537C427.132 349.667 417.62 369.914 402.808 363.503C391.578 358.642 394.559 341.007 399.063 332.467C402.428 326.088 404.05 321.656 411.153 319.121C412.592 320.111 413.837 321.294 415.135 322.465C413.665 317.587 410.899 305.382 420.619 307.447C429.722 309.382 434.025 323.596 432.152 331.88C434.788 332.082 442.264 333.126 444.238 330.835C448.395 326.007 451.689 320.315 456.011 315.481C458.5 312.698 460.673 309.773 464.382 313.161C468.352 316.921 465.656 320.193 463.028 323.695C456.733 332.085 450.605 339.83 450.594 350.796C466.31 345.565 470.92 331.443 481.53 321.837C483.926 322.828 486.598 323.744 487.384 326.493C488.554 330.582 472.46 346.75 477.477 349.727C481.623 349.976 490.352 343.008 493.549 340.435C499.437 335.7 502.887 326.334 506.476 319.85C509.213 314.915 517.658 307.59 509.22 303.008C495.766 295.705 478.056 297.01 463.166 296.319C459.274 296.139 456.403 295.525 455.143 291.556C454.859 290.664 455.275 290.243 455.738 289.619C458.314 288.15 466.086 288.757 469.349 288.762L491.908 288.758L512.757 288.722C517.015 288.713 522.141 288.553 526.32 288.964C528.309 282.216 556.347 242.617 561.435 236.562ZM416.47 325.354C415.255 327.732 413.213 328.578 411.68 330.707C406.379 338.06 401.53 347.92 402.221 357.197C404.629 356.75 405.826 356.556 408.129 355.537C413.695 350.515 416.933 347.468 420.451 340.576C421.415 338.693 422.485 336.14 423.43 334.429C422.507 333.368 416.421 325.333 416.47 325.354ZM569.866 313.32C562.89 318.51 558.849 321.257 552.415 327.383L552.34 327.911L553.092 327.864C559.522 325.73 563.91 322.597 568.247 317.368C569.009 316.448 570.534 314.85 570.848 313.762C570.419 313.451 570.378 313.331 569.866 313.32ZM496.02 295.181C498.069 296.109 499.018 296.55 501.231 297.138C505.889 298.793 512.147 301.809 515.546 305.395C517.22 302.537 519.053 298.8 521.471 296.708C516.84 296.16 508.906 295.519 504.289 295.775C501.149 295.391 499.179 295.218 496.02 295.181ZM576.15 63.1133C578.131 63.8454 581.794 67.9177 580.801 69.9385C576.569 78.5665 570.333 86.1955 565.39 94.4297C546.979 124.659 527.696 154.357 509.636 184.797C501.497 198.218 493.72 211.857 486.318 225.697C484.266 229.576 482.221 233.328 481.612 237.728C481.474 238.73 481.339 239.612 480.692 240.419C479.746 240.578 479.279 240.32 478.512 239.766C477.088 238.732 474.894 236.891 474.647 235.052C473.862 229.15 492.644 195.16 496.771 188.075C499.87 182.749 503.377 177.67 506.495 172.359C509.695 166.914 512.648 161.363 515.953 155.968C517.897 153.68 524.742 142.525 526.668 139.466C523.479 142.105 520.566 145.891 517.867 149.027C516.338 150.803 515.59 152.628 513.605 153.983C502.678 160.206 489.623 177.869 475.907 170.361C474.655 168.169 473.791 166.988 473.803 164.46L473.806 163.507C473.07 163.198 471.548 164.866 470.699 165.37C469.35 166.436 467.451 166.719 466.034 167.436C460.419 170.272 452.961 166.91 451.151 160.806C449.136 153.995 455.226 145.21 458.392 139.239C454.714 141.355 450.668 144.822 447.311 147.546C441.479 152.285 435.73 157.126 430.066 162.066C427.733 164.109 419.688 172.175 417.392 172.962C415.471 172.961 412.267 170.497 412.051 168.942C411.393 164.261 416.593 157.258 418.929 153.526C414.511 153.692 412.626 153.635 408.342 152.59C406.125 161.178 400.887 171.203 393.463 176.406C382.621 183.962 370.925 175.162 371.934 162.728C372.711 153.162 377.242 142.295 384.262 135.573C388.154 131.849 390.561 135.224 392.935 138.168C392.008 135.815 390.875 132.696 390.625 130.26C389.716 121.431 397.321 119.532 403.1 125.103C409.837 131.598 409.373 138.637 409.556 147.061C413.448 147.118 417.199 146.941 421.083 146.779C424.425 142.33 431.005 126.505 436.227 134.572C438.224 137.656 437.771 139.174 435.722 141.868C434.631 143.916 433.524 145.955 432.402 147.987C434.585 146.274 435.924 145.06 437.921 143.124C443.472 136.519 453.648 129.482 462.636 131.312C464.89 133.053 465.746 133.903 467.099 136.422C465.873 150.09 460.149 152.335 457.315 162.417C465.162 160.255 470.83 157.326 476.67 151.6C483.9 144.511 487.515 133.127 499.724 133.726C508.083 133.835 506.948 134.884 513.153 139.894C514.264 139.031 518.761 133.144 520.563 131.269C534.366 116.763 547.136 101.317 558.793 85.041C563.428 78.64 567.559 72.0816 571.952 65.5352C572.857 64.1864 574.434 63.0184 576.15 63.1133ZM322.964 211.587C313.385 210.706 306.206 210.689 296.553 210.86C287.194 220.485 290.507 231.261 304.85 231.354C307.034 228.935 308.599 227.549 311.153 225.473C314.945 221.077 319.167 215.796 322.964 211.587ZM184.522 0C188.402 1.61223 192.945 0.686917 196.898 1.42969C218.729 5.53103 242.345 11.2547 258.211 27.9268C262.955 32.9119 264.299 33.7772 267.346 40.0508C279.642 65.3656 262.852 85.0909 241.274 97.1826C237.484 99.3005 233.695 100.78 229.818 102.587C248.895 109.492 266.627 123.613 266.167 145.807C265.777 164.621 246.862 179.876 231.846 188.414C196.607 208.451 154.512 216.266 114.244 214.798C91.5115 213.963 61.547 209.733 44.2693 193.414C39.0318 188.074 37.0133 181.613 36.9539 174.317C36.5204 159.279 52.2878 142.793 64.3387 135.812C82.8171 125.106 108.38 119.253 129.373 124.431C130.282 124.655 136.636 126.609 136.9 126.37C140.537 123.087 141.915 116.682 145.629 113.166C143.829 112.525 141.232 111.623 139.616 110.634C121.508 99.5465 148.782 95.7906 156.077 94.4482C158.479 89.5832 165.014 79.4489 168.287 75.3379C167.367 73.7961 166.382 71.6565 165.566 70.0107C165.931 69.1732 166.329 68.3501 166.76 67.5439C168.393 64.5246 179.627 52.041 182.72 51.3242C183.83 51.0667 184.919 51.4673 185.82 52.1055C187.172 53.0629 188.463 54.8034 188.662 56.4844C189.099 60.1786 170.738 89.5763 167.361 93.9043C179.416 92.9125 195.466 93.7094 207.132 96.4199C210.337 97.1647 213.117 97.236 216.218 98.6113C221.19 96.9649 240.378 85.8949 244.909 82.376C252.513 76.4701 262.889 65.4736 263.822 55.2715C264.536 47.4689 262.989 42.0037 258.151 35.8115C243.316 16.8254 215.319 11.257 192.736 8.13086C181.545 6.58173 167.474 7.93557 156.296 9.58105C113.595 15.8669 69.4943 37.6046 39.3279 68.6719C31.6463 76.5827 23.5448 88.3166 17.8016 97.8262C15.5281 101.591 13.828 107.209 12.1443 111.092C10.6279 114.589 7.17915 130.355 5.48417 131.692C4.01222 131.504 2.19237 130.14 0.876747 129.3C0.725844 128.962 0.0233964 127.303 0.00467672 126.987C-0.22531 113.102 8.0697 93.7016 15.4959 82.3125C29.7941 60.3839 51.3185 41.133 74.3533 28.7998C78.5205 26.5686 82.3852 23.7616 86.5486 21.7725C107.574 11.7275 130.11 4.61883 153.237 1.5625C158.092 0.923908 162.824 1.31349 167.748 0.0996094L168.142 0H184.522ZM247.22 117.938C242.706 113.871 226 105.723 220.547 106.18C204.821 112.048 182.526 115.34 165.855 115.149C162.476 115.111 157.994 115.278 154.749 114.744C152.078 120.497 148.721 125.108 146.334 130.063C149.896 132.244 154.2 134.072 157.444 136.65C167.007 144.253 174.501 153.249 180.886 163.609C181.878 165.22 182.755 167.623 180.525 168.472C175.851 167.33 170.496 157.44 167.384 153.719C165.081 150.967 163.075 149.105 160.544 146.659C154.734 141.046 150.079 138.476 143.059 134.86C139.344 140.984 135.53 148.803 131.383 154.669C131.043 155.149 130.206 155.432 129.626 155.583C127.407 155.579 123.597 152.167 124.047 150.437C125.275 145.71 131.074 135.578 134.042 132.049C131.036 131.734 128.288 130.984 125.352 130.652C103.862 128.224 80.0179 136.118 63.4764 149.505C61.538 151.103 59.6344 152.742 57.7674 154.422C50.7903 162.298 44.217 170.033 44.4881 181.168C44.7386 191.447 60.0202 197.866 67.9031 200.407C90.1398 207.576 113.864 208.719 136.997 206.765C154.24 205.455 169.459 202.141 186.075 197.572C195.712 195.598 202.548 191.851 211.136 187.732C225.899 180.653 237.784 174.126 248.792 161.611C261.676 146.964 261.915 131.173 247.22 117.938ZM331.214 195.553C320.872 198.69 316.096 199.698 305.869 204.362L311.133 204.617C327.515 204.69 323.714 210.674 332.673 195.596L332.429 195.323L331.214 195.553ZM670.65 51.3135C673.233 50.9954 676.299 54.4375 676.583 56.8906C676.702 57.9196 675.166 60.645 674.478 61.5986C665.54 73.9832 657.028 86.6236 648.422 99.2402C647.588 100.463 646.739 101.717 645.77 102.834C645.595 103.034 645.415 103.231 645.232 103.425C653.879 102.566 663.241 103.287 671.959 103.006C673.488 102.957 675.141 103.003 676.666 103.104C678.947 98.2705 695.803 68.4555 699.201 67.1523C700.064 66.8213 700.905 66.9067 701.735 67.3027C703.305 68.0512 704.539 69.6788 705.074 71.3047C705.743 73.3411 705.017 74.7578 704.083 76.5273C701.331 81.7393 690.038 100.029 686.572 103.32C692.841 102.935 702.394 101.198 703.534 109.466C703.553 109.601 703.467 110.017 703.426 110.168C701.583 111.616 685.387 111.108 682.419 110.84C676.557 122.124 667.106 136.63 659.771 147.176C664.684 143.455 678.015 132.407 682.864 141.757C685.219 146.294 684.636 157.242 684.617 162.542C689.664 160.729 700.412 153.714 702.274 148.393C706.502 136.311 716.514 128.459 727.038 121.93C729.621 120.34 733.625 118.103 736.799 118.556C745.303 119.769 746.35 129.14 742.915 135.562C736.784 147.023 721.927 152.436 709.493 153.213C707.863 159.677 705.814 162.103 711.751 166.572C726.293 167.169 744.717 157.392 755.207 147.737C757.413 145.707 760.541 142.724 763.595 145.506C763.966 146.354 764.34 147.441 763.794 148.363C758.152 157.874 743.412 167.284 733.729 171.321C726.97 174.14 718.189 176.106 711.781 173.378C705.37 170.648 703.28 165.506 700.943 159.813C697.279 163.36 688.838 168.563 683.507 168.434C681.537 168.386 680.467 167.715 678.762 166.79C674.774 159.875 674.542 151.564 675.398 143.741C663.458 152.108 654.538 163.88 644.373 174.16C639.326 179.265 637.288 176.375 634.675 171.258C635.617 168.815 635.95 168.145 637.505 166.055C638.043 165.627 639.718 162.711 640.185 161.943C639.012 162.845 637.819 163.892 636.682 164.856C628.615 171.734 618.861 178.65 607.758 178.375C602.584 178.244 599.242 174.547 600.191 169.348C602.315 157.729 608.801 147.101 613.904 136.596C614.723 134.025 623.168 123.549 621.153 120.954C614.693 112.649 602.401 112.987 593.044 111.405C584.98 110.042 572.314 112.65 565.349 109.151C564.568 107.731 563.536 106.145 563.352 104.567L563.633 103.677C566.036 102.696 628.508 102.625 634.742 103.146C637.172 97.8972 666.866 53.2806 670.65 51.3135ZM393.72 140.478C386.696 145.883 379.989 159.114 378.924 167.958C378.755 169.342 378.643 170.318 379.473 171.506C381.249 172.326 382.905 171.578 384.565 170.62C392.779 165.161 396.461 157.764 400.655 148.918C399.761 147.991 393.792 140.516 393.72 140.478ZM640.099 110.821C635.905 118.351 631.079 125.705 626.72 133.138C623.647 138.376 604.722 165.315 610.442 169.776C617.882 168.505 639.389 152.857 646.365 147.55C654.848 141.1 663.697 120.085 671.671 111.357L671.574 110.866L671.147 110.852C665.697 111.2 658.743 110.931 653.184 110.973C649.981 110.997 643.049 111.129 640.099 110.821ZM507.437 144.981C507.351 141.547 502.768 142.272 500.278 142.447C489.646 149.28 486.468 155.457 481.122 165.86C482.643 164.633 485.361 162.33 486.909 161.413C489.047 160.156 506.549 146.302 507.437 144.981ZM310.209 127.789C305.272 130.219 296.254 138.202 292.359 142.007L292.263 142.534L292.463 142.737C299.567 139.705 306.051 136.057 310.543 128.897C310.704 128.641 310.562 128.434 310.464 128.015L310.209 127.789ZM735.823 127.824C731.591 130.357 721.201 138.452 717.9 142.045L717.769 142.586L717.975 142.681C722.391 141.316 736.634 132.694 735.969 127.979L735.823 127.824ZM399.571 129.403C396.21 132.979 398.218 138.452 400.763 141.957L401.628 141.979C402.521 139.646 401.291 132.778 400.622 130.166C400.203 129.712 400.165 129.58 399.571 129.403ZM605.011 109.672C606.992 110.63 607.874 111.111 610.068 111.601C611.291 112.385 613.108 113.009 614.487 113.649C618.536 115.528 621.358 117.067 624.622 120.07C625.882 117.415 627.34 113.801 629.474 111.888C629.934 111.475 629.744 111.694 629.92 111.012C628.335 110.633 615.403 110.313 613.687 110.611C611.53 109.981 607.328 109.753 605.011 109.672ZM203.133 102.291C194.969 101.572 177.634 101.116 169.679 101.847C162.612 102.07 148.175 103.807 141.682 106.614C149.333 107.754 167.48 108.166 174.856 107.018C185.562 106 192.697 104.992 203.133 102.291Z" fill="var(--fill-0, #0AC200)"/>
</svg>
