<svg preserveAspectRatio="none" width="100%" height="100%" overflow="visible" style="display: block;" viewBox="0 0 130.002 54.6348" fill="none" xmlns="http://www.w3.org/2000/svg">
<g id="Group 2">
<path id="Path 1" d="M47.8466 10.5145V28.1041H50.7439V10.5145H47.8466Z" fill="var(--fill-0, white)"/>
<path id="Path 2" d="M45.0625 15.6394C45.0623 16.7085 44.745 17.7535 44.1508 18.6422C43.5567 19.531 42.7123 20.2236 41.7246 20.6325C40.7368 21.0414 39.65 21.1483 38.6015 20.9395C37.553 20.7308 36.59 20.2158 35.8341 19.4598C35.0783 18.7037 34.5636 17.7406 34.3551 16.692C34.1467 15.6435 34.2538 14.5567 34.663 13.569C35.0721 12.5814 35.765 11.7372 36.6539 11.1433C37.5428 10.5494 38.5879 10.2324 39.657 10.2324C40.367 10.2324 41.07 10.3723 41.7259 10.644C42.3819 10.9158 42.9778 11.3141 43.4798 11.8162C43.9818 12.3183 44.3799 12.9144 44.6515 13.5704C44.9231 14.2264 45.0627 14.9294 45.0625 15.6394ZM39.657 13.1297C39.1616 13.13 38.6773 13.2771 38.2655 13.5525C37.8537 13.828 37.5328 14.2193 37.3434 14.677C37.1539 15.1348 37.1044 15.6384 37.2012 16.1243C37.2979 16.6101 37.5365 17.0565 37.8868 17.4068C38.2371 17.7571 38.6833 17.9956 39.1692 18.0924C39.6551 18.1891 40.1588 18.1396 40.6165 17.9501C41.0743 17.7607 41.4656 17.4398 41.741 17.028C42.0164 16.6162 42.1635 16.132 42.1638 15.6366C42.164 15.3073 42.0993 14.9813 41.9734 14.677C41.8475 14.3728 41.6628 14.0963 41.43 13.8635C41.1972 13.6307 40.9207 13.446 40.6165 13.3201C40.3123 13.1942 39.9862 13.1295 39.657 13.1297Z" fill="var(--fill-0, white)"/>
<g id="Group 1">
<path id="Path 3" d="M27.2413 7.13287C26.4866 6.68686 25.9153 5.98681 25.6296 5.158C25.3411 6.01529 24.777 6.75292 24.0252 7.25585L23.6405 6.92265C24.1802 6.60608 24.6259 6.15152 24.9318 5.60563C25.2377 5.05974 25.3927 4.44222 25.3808 3.81659V2.79267H25.8713V3.81659C25.8582 4.4173 26.0099 5.01014 26.3099 5.53074C26.6099 6.05134 27.0468 6.47981 27.5731 6.76964L27.2413 7.13287ZM28.5956 5.25379V8.30268H28.1165V2.44803H28.5956V4.82624H29.5094V5.25523L28.5956 5.25379Z" fill="var(--fill-0, white)"/>
<path id="Path 4" d="M30.5169 5.57379V2.88101H33.3413V3.29146H30.9903V5.15051C32.0112 5.18815 33.0333 5.13021 34.0434 4.97747L34.0506 5.38076C32.8801 5.54371 31.6981 5.60826 30.5169 5.57379ZM31.149 8.16789V6.2645H31.6223V7.76748H35.1374V8.16933L31.149 8.16789ZM34.9458 4.52556V6.69926H34.4738V2.45341H34.9458V4.11943H35.8038V4.52844L34.9458 4.52556Z" fill="var(--fill-0, white)"/>
<path id="Path 5" d="M41.1049 5.58522V4.20523H39.6748V5.36928H36.9577V2.728H37.4368V3.64897H39.2015V2.728H39.6748V3.78911H41.1049V2.45341H41.5782V5.58522H41.1049ZM39.2001 4.0465H37.4354V4.97747H39.2001V4.0465ZM37.647 8.23226V5.96992H38.1204V6.67351H41.0863V5.96992H41.5668V8.23226H37.647ZM41.0791 7.06965H38.1204V7.83757H41.0863L41.0791 7.06965Z" fill="var(--fill-0, white)"/>
<path id="Path 6" d="M43.21 4.1409C43.2308 3.7463 43.4022 3.37471 43.6889 3.10275C43.9756 2.8308 44.3557 2.67921 44.7509 2.67921C45.146 2.67921 45.5261 2.8308 45.8128 3.10275C46.0995 3.37471 46.2709 3.7463 46.2917 4.1409C46.2709 4.53551 46.0995 4.90705 45.8128 5.17901C45.5261 5.45096 45.146 5.60259 44.7509 5.60259C44.3557 5.60259 43.9756 5.45096 43.6889 5.17901C43.4022 4.90705 43.2308 4.53551 43.21 4.1409ZM43.7162 4.1409C43.7162 4.4155 43.8253 4.67882 44.0195 4.87299C44.2137 5.06716 44.477 5.17626 44.7516 5.17626C45.0262 5.17626 45.2895 5.06716 45.4837 4.87299C45.6778 4.67882 45.7869 4.4155 45.7869 4.1409C45.7869 3.86631 45.6778 3.60294 45.4837 3.40877C45.2895 3.2146 45.0262 3.10555 44.7516 3.10555C44.477 3.10555 44.2137 3.2146 44.0195 3.40877C43.8253 3.60294 43.7162 3.86631 43.7162 4.1409ZM44.131 8.16789V6.34747H44.6114V7.76608H48.2109V8.16789H44.131ZM47.5916 6.69926V2.45341H48.0636V6.69354L47.5916 6.69926Z" fill="var(--fill-0, white)"/>
</g>
<path id="Path 7" d="M61.7891 23.5118V13.1297H53.8237V10.2352H64.6921V23.5147L61.7891 23.5118Z" fill="var(--fill-0, white)"/>
<path id="Path 8" d="M67.4776 23.6019V10.2324H70.3735V23.6019H67.4776Z" fill="var(--fill-0, white)"/>
<path id="Path 9" d="M82.1895 28.188V20.2269H74.4072V17.3282H85.0883V28.1894L82.1895 28.188Z" fill="var(--fill-0, white)"/>
<path id="Path 10" d="M77.4628 34.1143V27.7477H80.3587V34.1143H77.4628Z" fill="var(--fill-0, white)"/>
<path id="Path 11" d="M87.8 34.9136V17.324H93.9993V20.2199H90.6959V34.9093L87.8 34.9136Z" fill="var(--fill-0, white)"/>
<path id="Path 12" d="M93.9768 35.5628V24.5958H105.567V35.5628H93.9768ZM96.8741 32.6641H102.673V27.4945H96.8741V32.6641Z" fill="var(--fill-0, white)"/>
<path id="Path 13" d="M103.39 45.6563V41.3661H93.5439V38.4703H106.286V45.6548L103.39 45.6563Z" fill="var(--fill-0, white)"/>
<path id="Path 14" d="M93.7981 54.6348V44.4014H96.6954V51.7375H105.698V54.6348H93.7981Z" fill="var(--fill-0, white)"/>
<path id="Path 15" d="M122.41 45.2415V17.3226H130.002V20.2185H125.307V45.2444L122.41 45.2415Z" fill="var(--fill-0, white)"/>
<path id="Path 16" d="M115.878 32.6656V29.5367H112.984V32.6656H107.978V35.5615H120.883V32.6656H115.878Z" fill="var(--fill-0, white)"/>
<path id="Path 17" d="M120.205 17.302H115.878V14.7279H112.983V17.302H108.647V20.1993H109.934C109.403 21.0101 109.101 21.9494 109.06 22.9178C109.02 23.8862 109.241 24.8477 109.702 25.7004C110.163 26.5531 110.846 27.2653 111.678 27.7617C112.511 28.2581 113.462 28.5202 114.431 28.5202C115.4 28.5202 116.352 28.2581 117.184 27.7617C118.017 27.2653 118.7 26.5531 119.16 25.7004C119.621 24.8477 119.843 23.8862 119.802 22.9178C119.761 21.9494 119.459 21.0101 118.928 20.1993H120.215L120.205 17.302ZM114.423 25.6248C113.933 25.6243 113.453 25.4783 113.046 25.2054C112.638 24.9325 112.321 24.5449 112.133 24.0916C111.946 23.6382 111.897 23.1395 111.993 22.6584C112.089 22.1774 112.325 21.7356 112.672 21.3888C113.019 21.042 113.461 20.8059 113.942 20.7102C114.423 20.6145 114.922 20.6636 115.375 20.8513C115.829 21.039 116.216 21.3567 116.489 21.7645C116.761 22.1723 116.907 22.6517 116.907 23.1423C116.906 23.8006 116.644 24.4316 116.178 24.897C115.713 25.3623 115.082 25.6241 114.423 25.6248Z" fill="var(--fill-0, white)"/>
<path id="Path 18" d="M11.5665 2.57415H7.23343V8.13837e-05H4.33471V2.57415H0.00022559V5.47143H1.28726C0.755913 6.28221 0.453725 7.22158 0.412639 8.19009C0.371553 9.1586 0.593094 10.1202 1.05387 10.9731C1.51464 11.8259 2.19747 12.5384 3.03005 13.0349C3.86262 13.5314 4.81397 13.7935 5.78335 13.7935C6.75273 13.7935 7.70408 13.5314 8.53666 13.0349C9.36923 12.5384 10.052 11.8259 10.5128 10.9731C10.9736 10.1202 11.1952 9.1586 11.1541 8.19009C11.113 7.22158 10.8108 6.28221 10.2794 5.47143H11.5665V2.57415ZM5.78479 10.897C5.29379 10.897 4.8138 10.7514 4.40554 10.4787C3.99729 10.2059 3.67911 9.81815 3.49121 9.36453C3.30331 8.9109 3.25415 8.41173 3.34994 7.93016C3.44573 7.44859 3.68216 7.00624 4.02935 6.65905C4.37654 6.31186 4.81889 6.07538 5.30046 5.97959C5.78203 5.8838 6.2812 5.93296 6.73483 6.12086C7.18846 6.30876 7.57617 6.62699 7.84895 7.03524C8.12174 7.4435 8.26735 7.92349 8.26735 8.41449C8.26659 9.07268 8.00481 9.70365 7.5394 10.1691C7.074 10.6345 6.44298 10.8963 5.78479 10.897Z" fill="var(--fill-0, white)"/>
<path id="Path 19" d="M13.8955 13.3608V2.3895H21.4948V5.28534H16.7985V13.3594L13.8955 13.3608Z" fill="var(--fill-0, white)"/>
<path id="Path 20" d="M6.39054 25.0147V15.2418H9.28782V25.0147H6.39054Z" fill="var(--fill-0, white)"/>
<path id="Path 21" d="M27.701 21.3073V13.3448H19.9215V10.4489H30.604V21.3087L27.701 21.3073Z" fill="var(--fill-0, white)"/>
<path id="Path 22" d="M27.7019 29.8769V25.5868H17.8575V22.6909H30.6006V29.8769H27.7019Z" fill="var(--fill-0, white)"/>
<path id="Path 23" d="M27.701 42.0401V34.0791H19.9215V31.1818H30.604V42.0416L27.701 42.0401Z" fill="var(--fill-0, white)"/>
<path id="Path 24" d="M74.5124 32.6654H62.7159V30.6105H71.9869V22.6923H6.39054V25.5881H69.0925V27.716H59.82V35.567H130.001V32.6712L74.5124 32.6654Z" fill="var(--fill-0, white)"/>
</g>
</svg>
