<svg preserveAspectRatio="none" width="100%" height="100%" overflow="visible" style="display: block;" viewBox="0 0 31.2102 50" fill="none" xmlns="http://www.w3.org/2000/svg">
<g id="Group 39">
<path id="Vector 57" d="M9.50521 34.1231L10.383 35.3338C10.2977 35.6396 10.0977 36.2511 9.9807 36.2511C9.86366 36.2511 8.58799 35.7269 8.24661 35.4823L7.20548 36.4882L8.79562 40.1403L9.68809 40.5073V41.5346L7.42035 45.3505L7.63981 47.5519L6.72539 49.3865L8.17156 50L10.4112 49.9684L15.7964 47.1483L16.345 48.2124L17.5155 48.3958L17.8446 47.5519H18.6859L18.9419 46.1577H21.5389L23.1117 43.5159L23.4043 40.7641H22.2704C22.4899 39.3332 22.8995 36.1704 22.7825 34.9669C22.6362 33.4626 22.7093 33.9763 21.7218 32.5087C20.7597 31.0789 21.1207 28.7256 19.7366 26.3315L18.8177 24.8191L17.8399 23.93L15.5227 23.41L14.8118 22.5908L15.2227 21.0793L15.7723 19.7827L18.5233 19.2034L20.1104 18.4407L21.3183 17.2411L24.8366 15.175L26.3516 14.7153L26.8626 13.9808L26.9364 12.9079L27.2718 11.7505L26.8804 10.748L26.3732 9.94285L26.763 8.73791L28.6977 7.38335L29.458 5.99873L31.1574 5.08986L31.2102 4.32348L29.9095 3.15538L29.7674 1.50289L28.0805 0L27.0482 0.13376L26.3968 1.42322L26.4054 3.52847L25.8647 3.95299L24.8605 3.67807L23.8177 3.96512L22.9678 5.9082L20.1765 6.33073L19.0074 5.47972L17.9892 5.40915L17.8802 6.99291L18.5051 8.31954L18.2785 9.38183L16.1192 9.54016L13.9319 8.61858L14.2884 7.15463C13.9098 6.95729 13.1119 6.55979 12.949 6.5485C12.7861 6.53721 12.0291 7.03229 11.6709 7.28124L9.65531 9.81087L8.92485 11.5056L7.22021 11.7468L5.35933 12.0285L3.2041 14.1891L1.1009 15.0187L0 16.8931L0.861804 18.4928L3.85579 20.4965L4.65259 22.2974L3.53151 25.2083L2.82811 27.2529L1.69052 27.4307L1.578 29.0655L2.92261 30.3394L7.60632 30.664L9.34062 32.2215L9.50521 34.1231Z" fill="var(--fill-0, #0AC200)"/>
</g>
</svg>
