<svg preserveAspectRatio="none" width="100%" height="100%" overflow="visible" style="display: block;" viewBox="0 0 423.202 473.953" fill="none" xmlns="http://www.w3.org/2000/svg">
<path id="Vector 23" d="M289.882 1.65519L298.32 23.6877C298.438 23.997 298.484 24.3295 298.453 24.6594L293.191 81.1331M132.841 208.968L166.356 233.815M112.732 235.301L230.034 323.876M95.975 261.634L178.804 323.876M75.3873 285.573L159.174 348.772M58.1512 311.906L140.023 375.584M36.1272 336.324L70.1207 362.703M94.5386 382.087L70.1207 362.703M70.1207 362.703L49.8545 391.407C49.6437 391.706 49.5122 392.053 49.4724 392.417L45.7028 426.814M45.7028 426.814L61.0239 455.541M45.7028 426.814L19.3698 442.614M1.65486 391.863L81.1327 399.523M81.1327 399.523L77.3025 411.014M81.1327 399.523L227.64 208.968M81.1327 399.523L118.478 404.58M306.639 453.147L224.767 423.462L173.059 411.972L146.726 408.406M29.4242 472.298L146.726 408.406M146.726 408.406L183.592 371.275M146.726 408.406L118.478 404.58M118.478 404.58L261.634 219.501M309.512 247.271L279.272 230.513M279.272 230.513L272.044 308.092C271.888 309.766 269.961 310.626 268.611 309.625L166.356 233.815M279.272 230.513L279.763 225.247M166.356 233.815L192.689 196.52M192.689 196.52L159.174 175.932M192.689 196.52L279.763 225.247M279.763 225.247L283.064 189.817M293.191 81.1331L385.16 50.491M293.191 81.1331L288.418 132.363M385.16 50.491L421.547 85.9209M385.16 50.491L380.094 30.8609M377.499 20.8065L380.094 30.8609M380.094 30.8609L366.487 33.7336M288.418 132.363L300.733 136.914C301.149 137.068 301.508 137.347 301.76 137.712L331.775 181.199M288.418 132.363L285.741 161.09M394.735 191.732L364.009 223.362C363.061 224.338 361.458 224.204 360.686 223.084L331.775 181.199M283.064 189.817L293.233 195.562M283.064 189.817L285.741 161.09M293.233 195.562L324.354 224.289M293.233 195.562L299.936 188.38M299.936 218.544L317.172 199.392M331.775 181.199L348.772 169.229M285.741 161.09L299.936 163.962" stroke="var(--stroke-0, #F0F0F0)" stroke-width="3.30949" stroke-linecap="round"/>
</svg>
