<svg preserveAspectRatio="none" width="100%" height="100%" overflow="visible" style="display: block;" viewBox="0 0 24 22" fill="none" xmlns="http://www.w3.org/2000/svg">
<path id="&#226;&#128;&#156;" d="M24 11.7226V22H14.0583V14.1314C14.11 10.3844 15.0162 7.25304 16.7767 4.73723C18.5372 2.16789 20.945 0.58881 24 0V5.0584C22.7573 5.32603 21.6958 6.12895 20.8155 7.46715C19.9353 8.80535 19.4951 10.2238 19.4951 11.7226H24ZM9.86408 11.7226V22H0V14.2117C0 10.5182 0.880259 7.38686 2.64078 4.81752C4.4013 2.24818 6.80906 0.669101 9.86408 0.0802912V5.13869C8.62136 5.40633 7.55987 6.20925 6.67961 7.54745C5.79935 8.83212 5.33333 10.2238 5.28155 11.7226H9.86408Z" fill="var(--fill-0, black)"/>
</svg>
