<svg preserveAspectRatio="none" width="100%" height="100%" overflow="visible" style="display: block;" viewBox="0 0 24 22" fill="none" xmlns="http://www.w3.org/2000/svg">
<path id="&#226;&#128;&#157;" d="M0 10.32V0.0799993H9.8961V7.92C9.8961 11.6 8.98701 14.72 7.16883 17.28C5.4026 19.84 3.01299 21.4133 0 22V16.96C1.24675 16.6933 2.31169 15.8933 3.19481 14.56C4.07792 13.2267 4.51948 11.8133 4.51948 10.32H0ZM14.1039 10.24V0H24V7.92C24 11.6 23.1169 14.72 21.3506 17.28C19.5844 19.84 17.1688 21.4133 14.1039 22V16.96C15.3506 16.64 16.4156 15.8133 17.2987 14.48C18.2338 13.1467 18.7013 11.7333 18.7013 10.24H14.1039Z" fill="var(--fill-0, black)"/>
</svg>
