<svg preserveAspectRatio="none" width="100%" height="100%" overflow="visible" style="display: block;" viewBox="0 0 92 142.312" fill="none" xmlns="http://www.w3.org/2000/svg">
<path id="Vector" d="M59.4826 0.0418927C63.6135 -0.442149 63.4514 3.38243 65.1076 5.6277C67.3004 8.59971 70.3267 7.29253 73.9632 8.14554C72.2989 8.45654 67.5347 8.69611 66.5649 10.0183C66.5894 10.7807 68.5058 12.162 69.2875 13.6173C68.8803 13.9342 68.4145 14.2158 67.9705 14.5002C67.6613 15.6479 67.8002 15.2834 66.9367 16.183C66.8768 16.5996 66.983 16.5506 67.3562 17.013C67.4093 17.5456 66.7597 17.8998 66.7474 18.1636C66.7215 18.7554 67.3372 19.3059 67.028 19.9947C66.0433 20.935 61.373 20.238 62.0935 22.5809C63.1777 23.5289 64.9442 22.5256 65.8975 23.6587C65.9248 23.9296 65.8036 24.2318 65.6401 24.4646C64.3067 26.3663 63.1736 28.2223 62.0772 30.2247C62.5743 32.182 63.7606 34.099 63.9281 36.0137C64.0098 36.9473 62.0608 38.6576 62.1548 39.6538C62.7146 40.3227 64.3381 40.5117 65.3541 40.7174C65.3282 42.1016 64.9142 43.5726 64.9265 45.1092C64.9496 47.9985 65.7518 50.4759 66.4069 53.2743C69.3706 54.0647 70.0925 55.1493 73.1787 53.7826C76.581 52.2766 75.7597 50.7389 75.4669 48.0911C75.3511 47.0565 74.5761 44.0057 75.1413 43.3016C76.5483 42.8199 77.5316 43.9969 78.2712 44.7789C78.372 46.3512 78.5558 47.8824 78.8337 49.4292C79.1442 51.166 78.895 51.4994 80.6015 52.664C82.9155 54.2417 82.4103 58.6499 80.4272 60.3092C80.1616 63.4575 80.9407 65.9195 81.4419 68.9845C82.9169 77.9944 83.6537 87.1055 84.9803 96.1244C85.4856 99.4376 86.01 102.749 86.5561 106.057C86.8394 107.692 87.2399 109.469 87.4687 111.091C87.9222 113.526 87.6199 116.413 88.1388 118.801C88.9941 122.74 89.3278 126.894 90.6135 130.731C91.6377 133.791 91.8733 137.158 92 140.307C90.4827 140.726 88.7952 141.294 88.3907 139.484C88.0557 137.981 87.8677 136.445 87.6348 134.929C87.1922 132.05 86.7278 129.174 86.2429 126.3C85.1928 120.175 83.7695 114.213 83.4427 108.01C83.3991 107.174 83.2615 106.207 83.1267 105.371C82.4348 101.1 81.5495 96.8441 81.0401 92.5546C80.6683 89.5046 80.6601 86.4713 80.4572 83.4169C80.069 79.094 79.136 74.6268 78.5654 70.2984C78.1445 67.4118 78.4564 64.3852 76.9228 61.682C75.9912 60.04 74.0858 61.0788 72.3888 61.0025C70.5773 60.9211 68.8871 60.368 67.186 59.9005C67.1111 60.8127 66.3034 64.371 66.396 64.6537C66.7788 65.0099 67.2323 65.0341 67.7063 65.2508C68.6624 65.6883 67.1465 69.4587 66.8714 70.2606C65.6592 73.7916 69.5123 74.9456 70.4657 77.9245C70.9995 79.5916 70.4357 81.5031 70.5814 83.2181C70.7489 85.2084 71.197 87.5631 71.8739 89.4813C72.2226 90.4709 72.7047 91.4294 73.0779 92.4135C74.6088 96.4509 73.6377 100.985 73.0657 105.072C72.8246 106.791 72.7538 108.716 71.9897 110.339C71.0976 112.236 69.2412 113.688 68.563 115.677C68.1871 116.784 68.6746 117.811 68.7741 118.911C68.9498 120.846 67.4666 122.974 66.4056 124.643C66.5636 125.117 67.1288 126.248 67.3658 126.76C68.1503 128.45 68.044 129.542 68.01 131.29C69.7261 133.155 72.3207 133.758 74.9643 134.382C75.9054 136.171 77.4472 140.269 73.4607 140.306C70.7626 140.331 68.1271 140.315 65.4249 140.435C64.2863 140.485 62.5702 140.058 61.3499 140.108C59.7564 140.12 58.1424 140.09 56.553 140.069C55.8352 140.057 54.416 140.026 53.8344 139.696C53.4095 139.456 53.2338 138.713 53.1889 138.311C52.9437 136.089 53.0608 133.841 52.9655 131.593C52.9083 130.206 52.4616 128.45 52.6441 127.176C52.7367 126.532 53.6615 125.03 53.7977 124.281C54.1627 122.252 54.2417 120.311 54.9145 118.313C55.3136 117.131 56.3119 115.921 56.4781 114.746C56.7518 112.798 56.3854 110.583 56.222 108.623C56.0068 106.041 56.982 105.566 58.9201 103.766C57.8768 103.21 56.9016 102.953 56.1648 102.062C55.1896 100.885 55.1678 98.9178 54.4923 97.7826C52.7939 94.927 50.992 93.833 49.7893 90.6719C49.0825 93.0966 49.5169 97.0251 49.3331 99.4909C49.1846 101.481 48.7965 103.347 48.6494 105.47C48.3375 105.867 48.0841 106.061 47.7205 106.407C46.5465 107.522 46.112 109.679 45.4623 111.179C44.9747 112.311 44.4081 113.418 43.7639 114.496C43.5133 114.907 43.053 115.463 42.6856 115.81C41.0483 117.358 41.5226 117.516 42.6948 119.067C41.9523 120.445 40.6552 122.305 40.4115 123.841C40.1731 125.345 41.6466 127.753 41.8063 129.388C41.9391 130.747 41.6631 132.11 41.484 133.458C43.9369 135.027 46.477 135.441 47.9588 138.02C47.9044 139.184 47.5652 140.516 47.316 141.677C46.2427 141.948 44.8739 142.357 43.753 142.308C41.0982 142.194 38.4574 141.947 35.8012 141.831C33.3421 141.723 30.8625 141.927 28.4212 141.705C27.9223 141.66 26.7338 141.051 26.2511 140.819C26.2147 139.098 26.4464 136.654 26.5228 134.85C23.1013 129.866 26.3178 125.037 26.6552 119.791C26.6848 119.331 26.0484 114.094 26.1386 113.992C28.032 111.834 27.5908 109.774 28.313 107.32C28.5564 106.388 29.2089 104.948 29.6622 104.033C29.4759 103.508 29.3114 102.928 29.1457 102.396C29.7841 100.585 31.4512 98.8911 32.5922 97.1395C32.5365 96.3276 32.4077 95.7323 32.1319 94.9548C31.96 94.3539 31.6327 93.552 31.695 92.9333C32.0612 89.2936 32.9724 85.6849 33.4179 82.0496C33.5781 80.7434 33.2371 79.4506 33.2555 78.1444C33.272 76.977 33.5466 75.8019 33.2926 74.6457C32.9559 73.0341 30.8527 72.1488 30.5009 70.5861C30.4888 70.5417 30.4765 70.4983 30.4644 70.455C28.339 71.5657 27.3561 72.2477 27.2117 74.4424C27.1371 75.5765 26.648 76.7516 25.1621 77.0903C21.8425 78.06 22.2418 74.0948 21.061 73.4839C18.3491 72.0811 18.21 72.4198 16.3289 70.0341C14.4338 67.6311 13.098 65.7902 13.2096 62.7597C13.2525 61.5909 13.0326 60.2052 12.6438 59.0768C11.644 59.7163 11.0087 60.0137 9.89544 60.5286C9.79315 59.7499 9.82761 56.6756 9.36916 56.3519C8.83268 56.7677 8.71405 62.2633 8.62552 63.2634L6.97943 64.7108C7.14763 61.887 7.08948 58.5872 7.12053 55.7278C3.82262 55.3913 0.879771 51.959 0.24495 49.4567C-0.57156 46.2383 0.740034 42.2055 2.89183 39.4708C4.62305 37.2707 6.60093 36.1522 9.69863 35.5952C10.3118 35.849 10.7715 36.0485 11.2659 36.4477C12.7868 37.6754 14.7295 38.5187 16.2957 39.6729C16.4785 38.4221 16.3606 37.0253 16.4963 35.7537C16.6607 33.9564 17.1078 32.0438 17.099 30.2403C17.0879 27.9768 16.1465 25.9552 17.57 23.7773C19.9822 20.0861 24.2227 17.928 28.962 16.6205C28.7731 12.9723 30.8768 10.5377 35.2763 9.70352C38.6337 10.4977 40.025 13.1025 40.4271 15.7356C42.6773 16.4059 44.1412 16.7399 46.5614 16.4176C47.7668 16.2572 47.6674 16.515 48.5527 16.5627C49.739 15.8921 49.581 14.1714 48.6194 13.4021C47.2152 12.2771 43.8361 15.228 42.8255 14.4897C42.9059 12.5963 48.6003 10.627 47.4685 8.39256C45.8682 5.23796 46.9197 4.24466 50.311 2.68458C53.5266 1.20502 55.7085 0.373769 59.4826 0.0418927Z" fill="var(--fill-0, black)"/>
</svg>
